<?xml version="1.0" encoding="iso-8859-1"?>
<!-- Generator: Adobe Illustrator 19.0.0, SVG Export Plug-In . SVG Version: 6.00 Build 0)  -->
<svg version="1.1" id="Layer_1" xmlns="http://www.w3.org/2000/svg" xmlns:xlink="http://www.w3.org/1999/xlink" x="0px" y="0px"
	 viewBox="0 0 323.797 323.797" style="enable-background:new 0 0 323.797 323.797;" xml:space="preserve">
<g>
	<g>
		<polygon style="fill:#C3C6C8;" points="173.41,17.171 0,17.171 0,279.432 217.114,279.432 217.114,60.875 		"/>
		<polygon style="fill:#A4A9AD;" points="173.41,60.875 217.114,60.875 173.41,17.171 		"/>
	</g>
	<g>
		<path style="fill:#5C6670;" d="M263.208,221.966c6.647,6.648,6.647,17.425,0,24.072c-6.646,6.646-17.424,6.645-24.071,0
			l-38.46-38.461c-6.646-6.646-6.646-17.424-0.001-24.071c6.648-6.646,17.426-6.646,24.073,0L263.208,221.966z"/>
		<circle style="fill:#1E252B;" cx="172.404" cy="155.235" r="77.309"/>
		<circle style="fill:#5E96DC;" cx="172.405" cy="155.235" r="49.745"/>
		<path style="fill:#333E48;" d="M238.103,257.195c-10.014-10.014-10.014-26.25,0-36.263c10.014-10.014,26.25-10.014,36.264,0
			l41.919,41.919c10.014,10.014,10.014,26.249,0,36.264c-10.013,10.013-26.249,10.013-36.263,0L238.103,257.195z"/>
	</g>
</g>
<g>
</g>
<g>
</g>
<g>
</g>
<g>
</g>
<g>
</g>
<g>
</g>
<g>
</g>
<g>
</g>
<g>
</g>
<g>
</g>
<g>
</g>
<g>
</g>
<g>
</g>
<g>
</g>
<g>
</g>
</svg>
