<svg width="216" height="133" viewBox="0 0 216 133" fill="none" xmlns="http://www.w3.org/2000/svg">
<g filter="url(#filter0_d)">
<rect x="40" y="36" width="136" height="53" rx="10" fill="#750303"/>
</g>
<path d="M114.464 69.088C114.384 69.216 114.3 69.308 114.212 69.364C114.124 69.412 114.012 69.436 113.876 69.436C113.732 69.436 113.576 69.396 113.408 69.316C113.248 69.236 113.06 69.148 112.844 69.052C112.628 68.948 112.38 68.856 112.1 68.776C111.828 68.696 111.504 68.656 111.128 68.656C110.544 68.656 110.084 68.78 109.748 69.028C109.42 69.276 109.256 69.6 109.256 70C109.256 70.264 109.34 70.488 109.508 70.672C109.684 70.848 109.912 71.004 110.192 71.14C110.48 71.276 110.804 71.4 111.164 71.512C111.524 71.616 111.888 71.732 112.256 71.86C112.632 71.988 113 72.136 113.36 72.304C113.72 72.464 114.04 72.672 114.32 72.928C114.608 73.176 114.836 73.476 115.004 73.828C115.18 74.18 115.268 74.604 115.268 75.1C115.268 75.692 115.16 76.24 114.944 76.744C114.736 77.24 114.424 77.672 114.008 78.04C113.592 78.4 113.076 78.684 112.46 78.892C111.852 79.092 111.148 79.192 110.348 79.192C109.924 79.192 109.508 79.152 109.1 79.072C108.7 79 108.312 78.896 107.936 78.76C107.568 78.624 107.224 78.464 106.904 78.28C106.592 78.096 106.316 77.896 106.076 77.68L106.76 76.552C106.848 76.416 106.952 76.312 107.072 76.24C107.192 76.168 107.344 76.132 107.528 76.132C107.712 76.132 107.884 76.184 108.044 76.288C108.212 76.392 108.404 76.504 108.62 76.624C108.836 76.744 109.088 76.856 109.376 76.96C109.672 77.064 110.044 77.116 110.492 77.116C110.844 77.116 111.144 77.076 111.392 76.996C111.648 76.908 111.856 76.796 112.016 76.66C112.184 76.524 112.304 76.368 112.376 76.192C112.456 76.008 112.496 75.82 112.496 75.628C112.496 75.34 112.408 75.104 112.232 74.92C112.064 74.736 111.836 74.576 111.548 74.44C111.268 74.304 110.944 74.184 110.576 74.08C110.216 73.968 109.844 73.848 109.46 73.72C109.084 73.592 108.712 73.444 108.344 73.276C107.984 73.1 107.66 72.88 107.372 72.616C107.092 72.352 106.864 72.028 106.688 71.644C106.52 71.26 106.436 70.796 106.436 70.252C106.436 69.748 106.536 69.268 106.736 68.812C106.936 68.356 107.228 67.96 107.612 67.624C108.004 67.28 108.488 67.008 109.064 66.808C109.648 66.6 110.32 66.496 111.08 66.496C111.928 66.496 112.7 66.636 113.396 66.916C114.092 67.196 114.672 67.564 115.136 68.02L114.464 69.088ZM127.031 68.92H127.787C128.091 68.92 128.343 68.88 128.543 68.8C128.743 68.712 128.915 68.576 129.059 68.392L133.847 62.332C134.047 62.076 134.255 61.9 134.471 61.804C134.695 61.7 134.975 61.648 135.311 61.648H138.095L132.251 68.86C131.907 69.3 131.551 69.612 131.183 69.796C131.447 69.892 131.683 70.028 131.891 70.204C132.107 70.372 132.311 70.596 132.503 70.876L138.527 79H135.683C135.299 79 135.011 78.948 134.819 78.844C134.635 78.732 134.479 78.572 134.351 78.364L129.443 71.956C129.291 71.74 129.115 71.588 128.915 71.5C128.715 71.412 128.427 71.368 128.051 71.368H127.031V79H123.803V61.648H127.031V68.92ZM142.86 66.688V79H139.884V66.688H142.86ZM143.268 63.1C143.268 63.356 143.216 63.596 143.112 63.82C143.008 64.044 142.868 64.24 142.692 64.408C142.524 64.576 142.324 64.712 142.092 64.816C141.86 64.912 141.612 64.96 141.348 64.96C141.092 64.96 140.848 64.912 140.616 64.816C140.392 64.712 140.196 64.576 140.028 64.408C139.86 64.24 139.724 64.044 139.62 63.82C139.524 63.596 139.476 63.356 139.476 63.1C139.476 62.836 139.524 62.588 139.62 62.356C139.724 62.124 139.86 61.924 140.028 61.756C140.196 61.588 140.392 61.456 140.616 61.36C140.848 61.256 141.092 61.204 141.348 61.204C141.612 61.204 141.86 61.256 142.092 61.36C142.324 61.456 142.524 61.588 142.692 61.756C142.868 61.924 143.008 62.124 143.112 62.356C143.216 62.588 143.268 62.836 143.268 63.1ZM153.394 69.088C153.314 69.216 153.23 69.308 153.142 69.364C153.054 69.412 152.942 69.436 152.806 69.436C152.662 69.436 152.506 69.396 152.338 69.316C152.178 69.236 151.99 69.148 151.774 69.052C151.558 68.948 151.31 68.856 151.03 68.776C150.758 68.696 150.434 68.656 150.058 68.656C149.474 68.656 149.014 68.78 148.678 69.028C148.35 69.276 148.186 69.6 148.186 70C148.186 70.264 148.27 70.488 148.438 70.672C148.614 70.848 148.842 71.004 149.122 71.14C149.41 71.276 149.734 71.4 150.094 71.512C150.454 71.616 150.818 71.732 151.186 71.86C151.562 71.988 151.93 72.136 152.29 72.304C152.65 72.464 152.97 72.672 153.25 72.928C153.538 73.176 153.766 73.476 153.934 73.828C154.11 74.18 154.198 74.604 154.198 75.1C154.198 75.692 154.09 76.24 153.874 76.744C153.666 77.24 153.354 77.672 152.938 78.04C152.522 78.4 152.006 78.684 151.39 78.892C150.782 79.092 150.078 79.192 149.278 79.192C148.854 79.192 148.438 79.152 148.03 79.072C147.63 79 147.242 78.896 146.866 78.76C146.498 78.624 146.154 78.464 145.834 78.28C145.522 78.096 145.246 77.896 145.006 77.68L145.69 76.552C145.778 76.416 145.882 76.312 146.002 76.24C146.122 76.168 146.274 76.132 146.458 76.132C146.642 76.132 146.814 76.184 146.974 76.288C147.142 76.392 147.334 76.504 147.55 76.624C147.766 76.744 148.018 76.856 148.306 76.96C148.602 77.064 148.974 77.116 149.422 77.116C149.774 77.116 150.074 77.076 150.322 76.996C150.578 76.908 150.786 76.796 150.946 76.66C151.114 76.524 151.234 76.368 151.306 76.192C151.386 76.008 151.426 75.82 151.426 75.628C151.426 75.34 151.338 75.104 151.162 74.92C150.994 74.736 150.766 74.576 150.478 74.44C150.198 74.304 149.874 74.184 149.506 74.08C149.146 73.968 148.774 73.848 148.39 73.72C148.014 73.592 147.642 73.444 147.274 73.276C146.914 73.1 146.59 72.88 146.302 72.616C146.022 72.352 145.794 72.028 145.618 71.644C145.45 71.26 145.366 70.796 145.366 70.252C145.366 69.748 145.466 69.268 145.666 68.812C145.866 68.356 146.158 67.96 146.542 67.624C146.934 67.28 147.418 67.008 147.994 66.808C148.578 66.6 149.25 66.496 150.01 66.496C150.858 66.496 151.63 66.636 152.326 66.916C153.022 67.196 153.602 67.564 154.066 68.02L153.394 69.088ZM163.941 69.088C163.861 69.216 163.777 69.308 163.689 69.364C163.601 69.412 163.489 69.436 163.353 69.436C163.209 69.436 163.053 69.396 162.885 69.316C162.725 69.236 162.537 69.148 162.321 69.052C162.105 68.948 161.857 68.856 161.577 68.776C161.305 68.696 160.981 68.656 160.605 68.656C160.021 68.656 159.561 68.78 159.225 69.028C158.897 69.276 158.733 69.6 158.733 70C158.733 70.264 158.817 70.488 158.985 70.672C159.161 70.848 159.389 71.004 159.669 71.14C159.957 71.276 160.281 71.4 160.641 71.512C161.001 71.616 161.365 71.732 161.733 71.86C162.109 71.988 162.477 72.136 162.837 72.304C163.197 72.464 163.517 72.672 163.797 72.928C164.085 73.176 164.313 73.476 164.481 73.828C164.657 74.18 164.745 74.604 164.745 75.1C164.745 75.692 164.637 76.24 164.421 76.744C164.213 77.24 163.901 77.672 163.485 78.04C163.069 78.4 162.553 78.684 161.937 78.892C161.329 79.092 160.625 79.192 159.825 79.192C159.401 79.192 158.985 79.152 158.577 79.072C158.177 79 157.789 78.896 157.413 78.76C157.045 78.624 156.701 78.464 156.381 78.28C156.069 78.096 155.793 77.896 155.553 77.68L156.237 76.552C156.325 76.416 156.429 76.312 156.549 76.24C156.669 76.168 156.821 76.132 157.005 76.132C157.189 76.132 157.361 76.184 157.521 76.288C157.689 76.392 157.881 76.504 158.097 76.624C158.313 76.744 158.565 76.856 158.853 76.96C159.149 77.064 159.521 77.116 159.969 77.116C160.321 77.116 160.621 77.076 160.869 76.996C161.125 76.908 161.333 76.796 161.493 76.66C161.661 76.524 161.781 76.368 161.853 76.192C161.933 76.008 161.973 75.82 161.973 75.628C161.973 75.34 161.885 75.104 161.709 74.92C161.541 74.736 161.313 74.576 161.025 74.44C160.745 74.304 160.421 74.184 160.053 74.08C159.693 73.968 159.321 73.848 158.937 73.72C158.561 73.592 158.189 73.444 157.821 73.276C157.461 73.1 157.137 72.88 156.849 72.616C156.569 72.352 156.341 72.028 156.165 71.644C155.997 71.26 155.913 70.796 155.913 70.252C155.913 69.748 156.013 69.268 156.213 68.812C156.413 68.356 156.705 67.96 157.089 67.624C157.481 67.28 157.965 67.008 158.541 66.808C159.125 66.6 159.797 66.496 160.557 66.496C161.405 66.496 162.177 66.636 162.873 66.916C163.569 67.196 164.149 67.564 164.613 68.02L163.941 69.088Z" fill="white"/>
<g filter="url(#filter1_d)">
<path d="M103.696 60.0486C104.132 60.2096 104.608 60.2313 105.053 60.1105C105.304 60.4875 105.677 60.7778 106.113 60.9382L103.91 64.2332C103.852 64.2909 103.777 64.3308 103.695 64.3479C103.613 64.3651 103.528 64.3587 103.449 64.3296C103.37 64.3006 103.301 64.2501 103.251 64.1844C103.201 64.1188 103.173 64.0409 103.169 63.9604L103.696 60.0486ZM107.304 57.8751L107.232 57.8484C107.366 57.6993 107.459 57.521 107.505 57.3286C107.551 57.1363 107.547 56.9355 107.495 56.7433C107.442 56.5512 107.342 56.3733 107.203 56.2247C107.064 56.0761 106.89 55.9611 106.696 55.8897C106.501 55.8182 106.293 55.7922 106.087 55.814C105.882 55.8358 105.686 55.9047 105.516 56.0148C105.346 56.1249 105.206 56.2731 105.11 56.4467C105.013 56.6203 104.962 56.8142 104.96 57.0121L104.888 56.9854C104.649 56.8974 104.389 56.8788 104.141 56.9319C103.894 56.9849 103.669 57.1073 103.496 57.2835C103.323 57.4598 103.209 57.6819 103.169 57.9219C103.129 58.1619 103.164 58.4089 103.271 58.6318C103.377 58.8546 103.55 59.0433 103.767 59.1739C103.984 59.3045 104.236 59.3712 104.491 59.3656C104.745 59.3599 104.991 59.2822 105.197 59.1421C105.404 59.0021 105.561 58.8061 105.649 58.5789C105.561 58.8061 105.545 59.0543 105.605 59.2921C105.664 59.5299 105.795 59.7466 105.982 59.9148C106.169 60.083 106.403 60.1952 106.655 60.2372C106.906 60.2791 107.164 60.249 107.396 60.1506C107.627 60.0521 107.822 59.8898 107.955 59.6842C108.089 59.4785 108.155 59.2387 108.145 58.9952C108.135 58.7516 108.05 58.5152 107.9 58.3158C107.751 58.1164 107.543 57.9631 107.304 57.8751Z" fill="white"/>
</g>
<g filter="url(#filter2_d)">
<path d="M63.7796 50.7084C63.6462 50.8449 63.5083 50.99 63.366 51.1435C63.2237 51.2971 63.0437 51.5019 62.8258 51.7579C62.6079 52.0139 62.4322 52.2699 62.2988 52.5258C62.1654 52.7818 62.0987 53.0037 62.0987 53.1914C62.0987 53.4218 61.683 53.6159 60.8515 53.7737C60.02 53.9316 59.0128 54.0105 57.83 54.0105C56.6472 54.0105 55.64 53.9316 54.8085 53.7737C53.977 53.6159 53.5612 53.4218 53.5612 53.1914C53.5612 52.9439 53.4412 52.6346 53.2011 52.2635C52.961 51.8923 52.7364 51.5936 52.5274 51.3675C52.3184 51.1414 52.1117 50.9302 51.9071 50.734C51.3024 50.1708 51 49.4882 51 48.6861C51 47.8926 51.2913 47.2164 51.8738 46.6575C52.4563 46.0986 53.1611 45.8191 53.9881 45.8191C54.1927 45.8191 54.4061 45.8405 54.6284 45.8831C54.4861 46.233 54.415 46.6212 54.415 47.0478C54.415 47.9608 54.7085 48.7203 55.2954 49.3261C55.2776 48.8653 55.2687 48.3789 55.2687 47.867C55.2687 47.0734 55.5178 46.3972 56.0158 45.8383C56.5138 45.2794 57.1185 45 57.83 45C58.5415 45 59.1462 45.2794 59.6442 45.8383C60.1422 46.3972 60.3912 47.0734 60.3912 47.867C60.3912 48.3875 60.3824 48.8738 60.3646 49.3261C60.9515 48.7203 61.245 47.9608 61.245 47.0478C61.245 46.6212 61.1739 46.233 61.0316 45.8831C61.2539 45.8405 61.4673 45.8191 61.6719 45.8191C62.4989 45.8191 63.2037 46.0986 63.7862 46.6575C64.3687 47.2164 64.66 47.8926 64.66 48.6861C64.66 49.4797 64.3665 50.1537 63.7796 50.7084ZM57.8233 54.8297C59.0017 54.8297 60.0088 54.7486 60.8448 54.5865C61.6808 54.4244 62.0987 54.2324 62.0987 54.0105V57.2871C62.0987 57.5089 61.6808 57.7009 60.8448 57.863C60.0088 58.0252 59.0017 58.1062 57.8233 58.1062C56.645 58.1062 55.64 58.0252 54.8085 57.863C53.977 57.7009 53.5612 57.5089 53.5612 57.2871V54.0105C53.5612 54.2409 53.977 54.435 54.8085 54.5929C55.64 54.7507 56.645 54.8297 57.8233 54.8297Z" fill="white"/>
</g>
<path d="M62.848 74.908C63.024 74.908 63.18 74.976 63.316 75.112L64.588 76.492C63.884 77.364 63.016 78.032 61.984 78.496C60.96 78.96 59.728 79.192 58.288 79.192C57 79.192 55.84 78.972 54.808 78.532C53.784 78.092 52.908 77.48 52.18 76.696C51.452 75.912 50.892 74.976 50.5 73.888C50.116 72.8 49.924 71.612 49.924 70.324C49.924 69.02 50.132 67.828 50.548 66.748C50.964 65.66 51.548 64.724 52.3 63.94C53.06 63.156 53.964 62.548 55.012 62.116C56.06 61.676 57.22 61.456 58.492 61.456C59.756 61.456 60.876 61.664 61.852 62.08C62.836 62.496 63.672 63.04 64.36 63.712L63.28 65.212C63.216 65.308 63.132 65.392 63.028 65.464C62.932 65.536 62.796 65.572 62.62 65.572C62.5 65.572 62.376 65.54 62.248 65.476C62.12 65.404 61.98 65.32 61.828 65.224C61.676 65.12 61.5 65.008 61.3 64.888C61.1 64.768 60.868 64.66 60.604 64.564C60.34 64.46 60.032 64.376 59.68 64.312C59.336 64.24 58.936 64.204 58.48 64.204C57.704 64.204 56.992 64.344 56.344 64.624C55.704 64.896 55.152 65.296 54.688 65.824C54.224 66.344 53.864 66.984 53.608 67.744C53.352 68.496 53.224 69.356 53.224 70.324C53.224 71.3 53.36 72.168 53.632 72.928C53.912 73.688 54.288 74.328 54.76 74.848C55.232 75.368 55.788 75.768 56.428 76.048C57.068 76.32 57.756 76.456 58.492 76.456C58.932 76.456 59.328 76.432 59.68 76.384C60.04 76.336 60.368 76.26 60.664 76.156C60.968 76.052 61.252 75.92 61.516 75.76C61.788 75.592 62.056 75.388 62.32 75.148C62.4 75.076 62.484 75.02 62.572 74.98C62.66 74.932 62.752 74.908 62.848 74.908ZM69.2952 68.008C69.7752 67.56 70.3032 67.196 70.8792 66.916C71.4552 66.636 72.1312 66.496 72.9072 66.496C73.5792 66.496 74.1752 66.612 74.6952 66.844C75.2152 67.068 75.6472 67.388 75.9912 67.804C76.3432 68.212 76.6072 68.704 76.7832 69.28C76.9672 69.848 77.0592 70.476 77.0592 71.164V79H74.0952V71.164C74.0952 70.412 73.9232 69.832 73.5792 69.424C73.2352 69.008 72.7112 68.8 72.0072 68.8C71.4952 68.8 71.0152 68.916 70.5672 69.148C70.1192 69.38 69.6952 69.696 69.2952 70.096V79H66.3312V61.168H69.2952V68.008ZM87.8101 71.428C87.8101 71.044 87.7541 70.684 87.6421 70.348C87.5381 70.004 87.3781 69.704 87.1621 69.448C86.9461 69.192 86.6701 68.992 86.3341 68.848C86.0061 68.696 85.6221 68.62 85.1821 68.62C84.3261 68.62 83.6501 68.864 83.1541 69.352C82.6661 69.84 82.3541 70.532 82.2181 71.428H87.8101ZM82.1581 73.216C82.2061 73.848 82.3181 74.396 82.4941 74.86C82.6701 75.316 82.9021 75.696 83.1901 76C83.4781 76.296 83.8181 76.52 84.2101 76.672C84.6101 76.816 85.0501 76.888 85.5301 76.888C86.0101 76.888 86.4221 76.832 86.7661 76.72C87.1181 76.608 87.4221 76.484 87.6781 76.348C87.9421 76.212 88.1701 76.088 88.3621 75.976C88.5621 75.864 88.7541 75.808 88.9381 75.808C89.1861 75.808 89.3701 75.9 89.4901 76.084L90.3421 77.164C90.0141 77.548 89.6461 77.872 89.2381 78.136C88.8301 78.392 88.4021 78.6 87.9541 78.76C87.5141 78.912 87.0621 79.02 86.5981 79.084C86.1421 79.148 85.6981 79.18 85.2661 79.18C84.4101 79.18 83.6141 79.04 82.8781 78.76C82.1421 78.472 81.5021 78.052 80.9581 77.5C80.4141 76.94 79.9861 76.252 79.6741 75.436C79.3621 74.612 79.2061 73.66 79.2061 72.58C79.2061 71.74 79.3421 70.952 79.6141 70.216C79.8861 69.472 80.2741 68.828 80.7781 68.284C81.2901 67.732 81.9101 67.296 82.6381 66.976C83.3741 66.656 84.2021 66.496 85.1221 66.496C85.8981 66.496 86.6141 66.62 87.2701 66.868C87.9261 67.116 88.4901 67.48 88.9621 67.96C89.4341 68.432 89.8021 69.016 90.0661 69.712C90.3381 70.4 90.4741 71.188 90.4741 72.076C90.4741 72.524 90.4261 72.828 90.3301 72.988C90.2341 73.14 90.0501 73.216 89.7781 73.216H82.1581ZM93.3749 79V68.92L92.3069 68.752C92.0749 68.704 91.8869 68.624 91.7429 68.512C91.6069 68.392 91.5389 68.224 91.5389 68.008V66.796H93.3749V65.884C93.3749 65.18 93.4789 64.548 93.6869 63.988C93.9029 63.428 94.2069 62.952 94.5989 62.56C94.9989 62.168 95.4829 61.868 96.0509 61.66C96.6189 61.452 97.2589 61.348 97.9709 61.348C98.5389 61.348 99.0669 61.424 99.5549 61.576L99.4949 63.064C99.4869 63.176 99.4549 63.268 99.3989 63.34C99.3429 63.404 99.2669 63.456 99.1709 63.496C99.0829 63.528 98.9789 63.552 98.8589 63.568C98.7389 63.576 98.6109 63.58 98.4749 63.58C98.1229 63.58 97.8069 63.62 97.5269 63.7C97.2549 63.772 97.0229 63.904 96.8309 64.096C96.6389 64.28 96.4909 64.528 96.3869 64.84C96.2909 65.144 96.2429 65.524 96.2429 65.98V66.796H99.4469V68.908H96.3389V79H93.3749Z" fill="white"/>
<defs>
<filter id="filter0_d" x="0" y="0" width="216" height="133" filterUnits="userSpaceOnUse" color-interpolation-filters="sRGB">
<feFlood flood-opacity="0" result="BackgroundImageFix"/>
<feColorMatrix in="SourceAlpha" type="matrix" values="0 0 0 0 0 0 0 0 0 0 0 0 0 0 0 0 0 0 127 0"/>
<feOffset dy="4"/>
<feGaussianBlur stdDeviation="20"/>
<feColorMatrix type="matrix" values="0 0 0 0 0 0 0 0 0 0 0 0 0 0 0 0 0 0 0.25 0"/>
<feBlend mode="normal" in2="BackgroundImageFix" result="effect1_dropShadow"/>
<feBlend mode="normal" in="SourceGraphic" in2="effect1_dropShadow" result="shape"/>
</filter>
<filter id="filter1_d" x="99.1528" y="55.8065" width="12.9929" height="16.5508" filterUnits="userSpaceOnUse" color-interpolation-filters="sRGB">
<feFlood flood-opacity="0" result="BackgroundImageFix"/>
<feColorMatrix in="SourceAlpha" type="matrix" values="0 0 0 0 0 0 0 0 0 0 0 0 0 0 0 0 0 0 127 0"/>
<feOffset dy="4"/>
<feGaussianBlur stdDeviation="2"/>
<feColorMatrix type="matrix" values="0 0 0 0 0 0 0 0 0 0 0 0 0 0 0 0 0 0 0.25 0"/>
<feBlend mode="normal" in2="BackgroundImageFix" result="effect1_dropShadow"/>
<feBlend mode="normal" in="SourceGraphic" in2="effect1_dropShadow" result="shape"/>
</filter>
<filter id="filter2_d" x="47" y="45" width="21.66" height="21.1062" filterUnits="userSpaceOnUse" color-interpolation-filters="sRGB">
<feFlood flood-opacity="0" result="BackgroundImageFix"/>
<feColorMatrix in="SourceAlpha" type="matrix" values="0 0 0 0 0 0 0 0 0 0 0 0 0 0 0 0 0 0 127 0"/>
<feOffset dy="4"/>
<feGaussianBlur stdDeviation="2"/>
<feColorMatrix type="matrix" values="0 0 0 0 0 0 0 0 0 0 0 0 0 0 0 0 0 0 0.25 0"/>
<feBlend mode="normal" in2="BackgroundImageFix" result="effect1_dropShadow"/>
<feBlend mode="normal" in="SourceGraphic" in2="effect1_dropShadow" result="shape"/>
</filter>
</defs>
</svg>
