<svg viewBox="0 0 272 106" fill="none" xmlns="http://www.w3.org/2000/svg">
<rect width="272" height="106" rx="10" fill="#750303"/>
<path d="M148.929 66.176C148.769 66.432 148.601 66.616 148.425 66.728C148.249 66.824 148.025 66.872 147.753 66.872C147.465 66.872 147.153 66.792 146.817 66.632C146.497 66.472 146.121 66.296 145.689 66.104C145.257 65.896 144.761 65.712 144.201 65.552C143.657 65.392 143.009 65.312 142.257 65.312C141.089 65.312 140.169 65.56 139.497 66.056C138.841 66.552 138.513 67.2 138.513 68C138.513 68.528 138.681 68.976 139.017 69.344C139.369 69.696 139.825 70.008 140.385 70.28C140.961 70.552 141.609 70.8 142.329 71.024C143.049 71.232 143.777 71.464 144.513 71.72C145.265 71.976 146.001 72.272 146.721 72.608C147.441 72.928 148.081 73.344 148.641 73.856C149.217 74.352 149.673 74.952 150.009 75.656C150.361 76.36 150.537 77.208 150.537 78.2C150.537 79.384 150.321 80.48 149.889 81.488C149.473 82.48 148.849 83.344 148.017 84.08C147.185 84.8 146.153 85.368 144.921 85.784C143.705 86.184 142.297 86.384 140.697 86.384C139.849 86.384 139.017 86.304 138.201 86.144C137.401 86 136.625 85.792 135.873 85.52C135.137 85.248 134.449 84.928 133.809 84.56C133.185 84.192 132.633 83.792 132.153 83.36L133.521 81.104C133.697 80.832 133.905 80.624 134.145 80.48C134.385 80.336 134.689 80.264 135.057 80.264C135.425 80.264 135.769 80.368 136.089 80.576C136.425 80.784 136.809 81.008 137.241 81.248C137.673 81.488 138.177 81.712 138.753 81.92C139.345 82.128 140.089 82.232 140.985 82.232C141.689 82.232 142.289 82.152 142.785 81.992C143.297 81.816 143.713 81.592 144.033 81.32C144.369 81.048 144.609 80.736 144.753 80.384C144.913 80.016 144.993 79.64 144.993 79.256C144.993 78.68 144.817 78.208 144.465 77.84C144.129 77.472 143.673 77.152 143.097 76.88C142.537 76.608 141.889 76.368 141.153 76.16C140.433 75.936 139.689 75.696 138.921 75.44C138.169 75.184 137.425 74.888 136.689 74.552C135.969 74.2 135.321 73.76 134.745 73.232C134.185 72.704 133.729 72.056 133.377 71.288C133.041 70.52 132.873 69.592 132.873 68.504C132.873 67.496 133.073 66.536 133.473 65.624C133.873 64.712 134.457 63.92 135.225 63.248C136.009 62.56 136.977 62.016 138.129 61.616C139.297 61.2 140.641 60.992 142.161 60.992C143.857 60.992 145.401 61.272 146.793 61.832C148.185 62.392 149.345 63.128 150.273 64.04L148.929 66.176ZM174.062 65.84H175.574C176.182 65.84 176.686 65.76 177.086 65.6C177.486 65.424 177.83 65.152 178.118 64.784L187.694 52.664C188.094 52.152 188.51 51.8 188.942 51.608C189.39 51.4 189.95 51.296 190.622 51.296H196.19L184.502 65.72C183.814 66.6 183.102 67.224 182.366 67.592C182.894 67.784 183.366 68.056 183.782 68.408C184.214 68.744 184.622 69.192 185.006 69.752L197.054 86H191.366C190.598 86 190.022 85.896 189.638 85.688C189.27 85.464 188.958 85.144 188.702 84.728L178.886 71.912C178.582 71.48 178.23 71.176 177.83 71C177.43 70.824 176.854 70.736 176.102 70.736H174.062V86H167.606V51.296H174.062V65.84ZM205.72 61.376V86H199.768V61.376H205.72ZM206.536 54.2C206.536 54.712 206.432 55.192 206.224 55.64C206.016 56.088 205.736 56.48 205.384 56.816C205.048 57.152 204.648 57.424 204.184 57.632C203.72 57.824 203.224 57.92 202.696 57.92C202.184 57.92 201.696 57.824 201.232 57.632C200.784 57.424 200.392 57.152 200.056 56.816C199.72 56.48 199.448 56.088 199.24 55.64C199.048 55.192 198.952 54.712 198.952 54.2C198.952 53.672 199.048 53.176 199.24 52.712C199.448 52.248 199.72 51.848 200.056 51.512C200.392 51.176 200.784 50.912 201.232 50.72C201.696 50.512 202.184 50.408 202.696 50.408C203.224 50.408 203.72 50.512 204.184 50.72C204.648 50.912 205.048 51.176 205.384 51.512C205.736 51.848 206.016 52.248 206.224 52.712C206.432 53.176 206.536 53.672 206.536 54.2ZM226.788 66.176C226.628 66.432 226.46 66.616 226.284 66.728C226.108 66.824 225.884 66.872 225.612 66.872C225.324 66.872 225.012 66.792 224.676 66.632C224.356 66.472 223.98 66.296 223.548 66.104C223.116 65.896 222.62 65.712 222.06 65.552C221.516 65.392 220.868 65.312 220.116 65.312C218.948 65.312 218.028 65.56 217.356 66.056C216.7 66.552 216.372 67.2 216.372 68C216.372 68.528 216.54 68.976 216.876 69.344C217.228 69.696 217.684 70.008 218.244 70.28C218.82 70.552 219.468 70.8 220.188 71.024C220.908 71.232 221.636 71.464 222.372 71.72C223.124 71.976 223.86 72.272 224.58 72.608C225.3 72.928 225.94 73.344 226.5 73.856C227.076 74.352 227.532 74.952 227.868 75.656C228.22 76.36 228.396 77.208 228.396 78.2C228.396 79.384 228.18 80.48 227.748 81.488C227.332 82.48 226.708 83.344 225.876 84.08C225.044 84.8 224.012 85.368 222.78 85.784C221.564 86.184 220.156 86.384 218.556 86.384C217.708 86.384 216.876 86.304 216.06 86.144C215.26 86 214.484 85.792 213.732 85.52C212.996 85.248 212.308 84.928 211.668 84.56C211.044 84.192 210.492 83.792 210.012 83.36L211.38 81.104C211.556 80.832 211.764 80.624 212.004 80.48C212.244 80.336 212.548 80.264 212.916 80.264C213.284 80.264 213.628 80.368 213.948 80.576C214.284 80.784 214.668 81.008 215.1 81.248C215.532 81.488 216.036 81.712 216.612 81.92C217.204 82.128 217.948 82.232 218.844 82.232C219.548 82.232 220.148 82.152 220.644 81.992C221.156 81.816 221.572 81.592 221.892 81.32C222.228 81.048 222.468 80.736 222.612 80.384C222.772 80.016 222.852 79.64 222.852 79.256C222.852 78.68 222.676 78.208 222.324 77.84C221.988 77.472 221.532 77.152 220.956 76.88C220.396 76.608 219.748 76.368 219.012 76.16C218.292 75.936 217.548 75.696 216.78 75.44C216.028 75.184 215.284 74.888 214.548 74.552C213.828 74.2 213.18 73.76 212.604 73.232C212.044 72.704 211.588 72.056 211.236 71.288C210.9 70.52 210.732 69.592 210.732 68.504C210.732 67.496 210.932 66.536 211.332 65.624C211.732 64.712 212.316 63.92 213.084 63.248C213.868 62.56 214.836 62.016 215.988 61.616C217.156 61.2 218.5 60.992 220.02 60.992C221.716 60.992 223.26 61.272 224.652 61.832C226.044 62.392 227.204 63.128 228.132 64.04L226.788 66.176ZM247.882 66.176C247.722 66.432 247.554 66.616 247.378 66.728C247.202 66.824 246.978 66.872 246.706 66.872C246.418 66.872 246.106 66.792 245.77 66.632C245.45 66.472 245.074 66.296 244.642 66.104C244.21 65.896 243.714 65.712 243.154 65.552C242.61 65.392 241.962 65.312 241.21 65.312C240.042 65.312 239.122 65.56 238.45 66.056C237.794 66.552 237.466 67.2 237.466 68C237.466 68.528 237.634 68.976 237.97 69.344C238.322 69.696 238.778 70.008 239.338 70.28C239.914 70.552 240.562 70.8 241.282 71.024C242.002 71.232 242.73 71.464 243.466 71.72C244.218 71.976 244.954 72.272 245.674 72.608C246.394 72.928 247.034 73.344 247.594 73.856C248.17 74.352 248.626 74.952 248.962 75.656C249.314 76.36 249.49 77.208 249.49 78.2C249.49 79.384 249.274 80.48 248.842 81.488C248.426 82.48 247.802 83.344 246.97 84.08C246.138 84.8 245.106 85.368 243.874 85.784C242.658 86.184 241.25 86.384 239.65 86.384C238.802 86.384 237.97 86.304 237.154 86.144C236.354 86 235.578 85.792 234.826 85.52C234.09 85.248 233.402 84.928 232.762 84.56C232.138 84.192 231.586 83.792 231.106 83.36L232.474 81.104C232.65 80.832 232.858 80.624 233.098 80.48C233.338 80.336 233.642 80.264 234.01 80.264C234.378 80.264 234.722 80.368 235.042 80.576C235.378 80.784 235.762 81.008 236.194 81.248C236.626 81.488 237.13 81.712 237.706 81.92C238.298 82.128 239.042 82.232 239.938 82.232C240.642 82.232 241.242 82.152 241.738 81.992C242.25 81.816 242.666 81.592 242.986 81.32C243.322 81.048 243.562 80.736 243.706 80.384C243.866 80.016 243.946 79.64 243.946 79.256C243.946 78.68 243.77 78.208 243.418 77.84C243.082 77.472 242.626 77.152 242.05 76.88C241.49 76.608 240.842 76.368 240.106 76.16C239.386 75.936 238.642 75.696 237.874 75.44C237.122 75.184 236.378 74.888 235.642 74.552C234.922 74.2 234.274 73.76 233.698 73.232C233.138 72.704 232.682 72.056 232.33 71.288C231.994 70.52 231.826 69.592 231.826 68.504C231.826 67.496 232.026 66.536 232.426 65.624C232.826 64.712 233.41 63.92 234.178 63.248C234.962 62.56 235.93 62.016 237.082 61.616C238.25 61.2 239.594 60.992 241.114 60.992C242.81 60.992 244.354 61.272 245.746 61.832C247.138 62.392 248.298 63.128 249.226 64.04L247.882 66.176Z" fill="white"/>
<g filter="url(#filter0_d)">
<path d="M127.392 48.0971C128.263 48.4191 129.216 48.4626 130.107 48.221C130.609 48.975 131.354 49.5556 132.225 49.8765L127.819 56.4664C127.704 56.5818 127.555 56.6616 127.391 56.6959C127.227 56.7301 127.055 56.7174 126.897 56.6593C126.739 56.6011 126.602 56.5001 126.503 56.3688C126.403 56.2375 126.346 56.0817 126.337 55.9208L127.392 48.0971ZM134.609 43.7502L134.464 43.6968C134.731 43.3986 134.919 43.042 135.01 42.6573C135.102 42.2726 135.094 41.871 134.989 41.4867C134.884 41.1023 134.684 40.7465 134.406 40.4493C134.127 40.1521 133.779 39.9223 133.391 39.7793C133.003 39.6364 132.586 39.5845 132.175 39.6281C131.764 39.6716 131.372 39.8094 131.032 40.0296C130.691 40.2498 130.412 40.5461 130.219 40.8933C130.026 41.2405 129.923 41.6284 129.921 42.0242L129.776 41.9708C129.298 41.7949 128.778 41.7576 128.283 41.8637C127.787 41.9699 127.338 42.2146 126.992 42.5671C126.645 42.9195 126.418 43.3638 126.338 43.8438C126.258 44.3238 126.328 44.8179 126.541 45.2636C126.754 45.7093 127.1 46.0866 127.534 46.3478C127.968 46.6091 128.472 46.7425 128.981 46.7311C129.49 46.7198 129.982 46.5643 130.395 46.2843C130.807 46.0042 131.122 45.6122 131.298 45.1579C131.122 45.6122 131.091 46.1086 131.209 46.5841C131.328 47.0597 131.591 47.4931 131.964 47.8296C132.338 48.166 132.806 48.3904 133.31 48.4743C133.813 48.5583 134.329 48.498 134.792 48.3011C135.254 48.1042 135.644 47.7796 135.911 47.3683C136.177 46.957 136.309 46.4774 136.289 45.9903C136.27 45.5032 136.1 45.0304 135.801 44.6316C135.501 44.2329 135.087 43.9261 134.609 43.7502Z" fill="white"/>
</g>
<g filter="url(#filter1_d)">
<path d="M47.5591 29.4167C47.2923 29.6898 47.0167 29.9799 46.7321 30.2871C46.4475 30.5943 46.0873 31.0038 45.6515 31.5158C45.2158 32.0277 44.8645 32.5397 44.5977 33.0517C44.3309 33.5636 44.1975 34.0073 44.1975 34.3828C44.1975 34.8435 43.366 35.2318 41.7029 35.5475C40.0399 35.8632 38.0256 36.021 35.66 36.021C33.2944 36.021 31.2801 35.8632 29.6171 35.5475C27.954 35.2318 27.1225 34.8435 27.1225 34.3828C27.1225 33.8879 26.8824 33.2693 26.4021 32.5269C25.9219 31.7846 25.4728 31.1873 25.0548 30.735C24.6368 30.2828 24.2233 29.8604 23.8142 29.4679C22.6047 28.3416 22 26.9764 22 25.3722C22 23.7852 22.5825 22.4327 23.7475 21.315C24.9125 20.1972 26.3221 19.6383 27.9762 19.6383C28.3853 19.6383 28.8122 19.6809 29.2569 19.7663C28.9723 20.4659 28.83 21.2424 28.83 22.0957C28.83 23.9217 29.417 25.4405 30.5909 26.6522C30.5553 25.7306 30.5375 24.7579 30.5375 23.734C30.5375 22.1469 31.0355 20.7945 32.0316 19.6767C33.0276 18.5589 34.2371 18 35.66 18C37.0829 18 38.2924 18.5589 39.2884 19.6767C40.2845 20.7945 40.7825 22.1469 40.7825 23.734C40.7825 24.775 40.7647 25.7477 40.7291 26.6522C41.903 25.4405 42.49 23.9217 42.49 22.0957C42.49 21.2424 42.3477 20.4659 42.0631 19.7663C42.5078 19.6809 42.9347 19.6383 43.3437 19.6383C44.9979 19.6383 46.4075 20.1972 47.5725 21.315C48.7375 22.4327 49.32 23.7852 49.32 25.3722C49.32 26.9593 48.733 28.3075 47.5591 29.4167ZM35.6467 37.6593C38.0034 37.6593 40.0177 37.4972 41.6896 37.173C43.3615 36.8487 44.1975 36.4647 44.1975 36.021V42.5742C44.1975 43.0179 43.3615 43.4018 41.6896 43.7261C40.0177 44.0503 38.0034 44.2124 35.6467 44.2124C33.29 44.2124 31.2801 44.0503 29.6171 43.7261C27.954 43.4018 27.1225 43.0179 27.1225 42.5742V36.021C27.1225 36.4818 27.954 36.8701 29.6171 37.1858C31.2801 37.5015 33.29 37.6593 35.6467 37.6593Z" fill="white"/>
</g>
<path d="M45.696 77.816C46.048 77.816 46.36 77.952 46.632 78.224L49.176 80.984C47.768 82.728 46.032 84.064 43.968 84.992C41.92 85.92 39.456 86.384 36.576 86.384C34 86.384 31.68 85.944 29.616 85.064C27.568 84.184 25.816 82.96 24.36 81.392C22.904 79.824 21.784 77.952 21 75.776C20.232 73.6 19.848 71.224 19.848 68.648C19.848 66.04 20.264 63.656 21.096 61.496C21.928 59.32 23.096 57.448 24.6 55.88C26.12 54.312 27.928 53.096 30.024 52.232C32.12 51.352 34.44 50.912 36.984 50.912C39.512 50.912 41.752 51.328 43.704 52.16C45.672 52.992 47.344 54.08 48.72 55.424L46.56 58.424C46.432 58.616 46.264 58.784 46.056 58.928C45.864 59.072 45.592 59.144 45.24 59.144C45 59.144 44.752 59.08 44.496 58.952C44.24 58.808 43.96 58.64 43.656 58.448C43.352 58.24 43 58.016 42.6 57.776C42.2 57.536 41.736 57.32 41.208 57.128C40.68 56.92 40.064 56.752 39.36 56.624C38.672 56.48 37.872 56.408 36.96 56.408C35.408 56.408 33.984 56.688 32.688 57.248C31.408 57.792 30.304 58.592 29.376 59.648C28.448 60.688 27.728 61.968 27.216 63.488C26.704 64.992 26.448 66.712 26.448 68.648C26.448 70.6 26.72 72.336 27.264 73.856C27.824 75.376 28.576 76.656 29.52 77.696C30.464 78.736 31.576 79.536 32.856 80.096C34.136 80.64 35.512 80.912 36.984 80.912C37.864 80.912 38.656 80.864 39.36 80.768C40.08 80.672 40.736 80.52 41.328 80.312C41.936 80.104 42.504 79.84 43.032 79.52C43.576 79.184 44.112 78.776 44.64 78.296C44.8 78.152 44.968 78.04 45.144 77.96C45.32 77.864 45.504 77.816 45.696 77.816ZM58.5904 64.016C59.5504 63.12 60.6064 62.392 61.7584 61.832C62.9104 61.272 64.2624 60.992 65.8144 60.992C67.1584 60.992 68.3504 61.224 69.3904 61.688C70.4304 62.136 71.2944 62.776 71.9824 63.608C72.6864 64.424 73.2144 65.408 73.5664 66.56C73.9344 67.696 74.1184 68.952 74.1184 70.328V86H68.1904V70.328C68.1904 68.824 67.8464 67.664 67.1584 66.848C66.4704 66.016 65.4224 65.6 64.0144 65.6C62.9904 65.6 62.0304 65.832 61.1344 66.296C60.2384 66.76 59.3904 67.392 58.5904 68.192V86H52.6624V50.336H58.5904V64.016ZM95.6201 70.856C95.6201 70.088 95.5081 69.368 95.2841 68.696C95.0761 68.008 94.7561 67.408 94.3241 66.896C93.8921 66.384 93.3401 65.984 92.6681 65.696C92.0121 65.392 91.2441 65.24 90.3641 65.24C88.6521 65.24 87.3001 65.728 86.3081 66.704C85.3321 67.68 84.7081 69.064 84.4361 70.856H95.6201ZM84.3161 74.432C84.4121 75.696 84.6361 76.792 84.9881 77.72C85.3401 78.632 85.8041 79.392 86.3801 80C86.9561 80.592 87.6361 81.04 88.4201 81.344C89.2201 81.632 90.1001 81.776 91.0601 81.776C92.0201 81.776 92.8441 81.664 93.5321 81.44C94.2361 81.216 94.8441 80.968 95.3561 80.696C95.8841 80.424 96.3401 80.176 96.7241 79.952C97.1241 79.728 97.5081 79.616 97.8761 79.616C98.3721 79.616 98.7401 79.8 98.9801 80.168L100.684 82.328C100.028 83.096 99.2921 83.744 98.4761 84.272C97.6601 84.784 96.8041 85.2 95.9081 85.52C95.0281 85.824 94.1241 86.04 93.1961 86.168C92.2841 86.296 91.3961 86.36 90.5321 86.36C88.8201 86.36 87.2281 86.08 85.7561 85.52C84.2841 84.944 83.0041 84.104 81.9161 83C80.8281 81.88 79.9721 80.504 79.3481 78.872C78.7241 77.224 78.4121 75.32 78.4121 73.16C78.4121 71.48 78.6841 69.904 79.2281 68.432C79.7721 66.944 80.5481 65.656 81.5561 64.568C82.5801 63.464 83.8201 62.592 85.2761 61.952C86.7481 61.312 88.4041 60.992 90.2441 60.992C91.7961 60.992 93.2281 61.24 94.5401 61.736C95.8521 62.232 96.9801 62.96 97.9241 63.92C98.8681 64.864 99.6041 66.032 100.132 67.424C100.676 68.8 100.948 70.376 100.948 72.152C100.948 73.048 100.852 73.656 100.66 73.976C100.468 74.28 100.1 74.432 99.5561 74.432H84.3161ZM106.75 86V65.84L104.614 65.504C104.15 65.408 103.774 65.248 103.486 65.024C103.214 64.784 103.078 64.448 103.078 64.016V61.592H106.75V59.768C106.75 58.36 106.958 57.096 107.374 55.976C107.806 54.856 108.414 53.904 109.198 53.12C109.998 52.336 110.966 51.736 112.102 51.32C113.238 50.904 114.518 50.696 115.942 50.696C117.078 50.696 118.134 50.848 119.11 51.152L118.99 54.128C118.974 54.352 118.91 54.536 118.798 54.68C118.686 54.808 118.534 54.912 118.342 54.992C118.166 55.056 117.958 55.104 117.718 55.136C117.478 55.152 117.222 55.16 116.95 55.16C116.246 55.16 115.614 55.24 115.054 55.4C114.51 55.544 114.046 55.808 113.662 56.192C113.278 56.56 112.982 57.056 112.774 57.68C112.582 58.288 112.486 59.048 112.486 59.96V61.592H118.894V65.816H112.678V86H106.75Z" fill="white"/>
<defs>
<filter id="filter0_d" x="122.306" y="39.613" width="17.9857" height="25.1016" filterUnits="userSpaceOnUse" color-interpolation-filters="sRGB">
<feFlood flood-opacity="0" result="BackgroundImageFix"/>
<feColorMatrix in="SourceAlpha" type="matrix" values="0 0 0 0 0 0 0 0 0 0 0 0 0 0 0 0 0 0 127 0"/>
<feOffset dy="4"/>
<feGaussianBlur stdDeviation="2"/>
<feColorMatrix type="matrix" values="0 0 0 0 0 0 0 0 0 0 0 0 0 0 0 0 0 0 0.25 0"/>
<feBlend mode="normal" in2="BackgroundImageFix" result="effect1_dropShadow"/>
<feBlend mode="normal" in="SourceGraphic" in2="effect1_dropShadow" result="shape"/>
</filter>
<filter id="filter1_d" x="18" y="18" width="35.32" height="34.2124" filterUnits="userSpaceOnUse" color-interpolation-filters="sRGB">
<feFlood flood-opacity="0" result="BackgroundImageFix"/>
<feColorMatrix in="SourceAlpha" type="matrix" values="0 0 0 0 0 0 0 0 0 0 0 0 0 0 0 0 0 0 127 0"/>
<feOffset dy="4"/>
<feGaussianBlur stdDeviation="2"/>
<feColorMatrix type="matrix" values="0 0 0 0 0 0 0 0 0 0 0 0 0 0 0 0 0 0 0.25 0"/>
<feBlend mode="normal" in2="BackgroundImageFix" result="effect1_dropShadow"/>
<feBlend mode="normal" in="SourceGraphic" in2="effect1_dropShadow" result="shape"/>
</filter>
</defs>
</svg>
