<svg width="82" height="79" viewBox="0 0 82 79" fill="none" xmlns="http://www.w3.org/2000/svg">
<g filter="url(#filter0_d)">
<path d="M73.2305 30.9238C72.5078 31.6634 71.7611 32.4492 70.9902 33.2812C70.2194 34.1133 69.2438 35.2227 68.0635 36.6094C66.8831 37.9961 65.9316 39.3828 65.209 40.7695C64.4863 42.1562 64.125 43.3581 64.125 44.375C64.125 45.623 61.8727 46.6746 57.3682 47.5298C52.8636 48.3849 47.4076 48.8125 41 48.8125C34.5924 48.8125 29.1364 48.3849 24.6318 47.5298C20.1273 46.6746 17.875 45.623 17.875 44.375C17.875 43.0345 17.2246 41.3589 15.9238 39.3481C14.623 37.3374 13.4066 35.7196 12.2744 34.4946C11.1423 33.2697 10.0221 32.1257 8.91406 31.0625C5.63802 28.0117 4 24.3138 4 19.9688C4 15.6699 5.5778 12.0067 8.7334 8.979C11.889 5.95133 15.707 4.4375 20.1875 4.4375C21.2956 4.4375 22.4518 4.55306 23.6562 4.78418C22.8854 6.67936 22.5 8.78255 22.5 11.0938C22.5 16.0397 24.0898 20.1536 27.2695 23.4355C27.1732 20.9395 27.125 18.3047 27.125 15.5312C27.125 11.2324 28.474 7.56917 31.1719 4.5415C33.8698 1.51383 37.1458 0 41 0C44.8542 0 48.1302 1.51383 50.8281 4.5415C53.526 7.56917 54.875 11.2324 54.875 15.5312C54.875 18.3509 54.8268 20.9857 54.7305 23.4355C57.9102 20.1536 59.5 16.0397 59.5 11.0938C59.5 8.78255 59.1146 6.67936 58.3438 4.78418C59.5482 4.55306 60.7044 4.4375 61.8125 4.4375C66.293 4.4375 70.111 5.95133 73.2666 8.979C76.4222 12.0067 78 15.6699 78 19.9688C78 24.2676 76.4102 27.9193 73.2305 30.9238ZM40.9639 53.25C47.3473 53.25 52.8034 52.8109 57.332 51.9326C61.8607 51.0544 64.125 50.0143 64.125 48.8125V66.5625C64.125 67.7643 61.8607 68.8044 57.332 69.6826C52.8034 70.5609 47.3473 71 40.9639 71C34.5804 71 29.1364 70.5609 24.6318 69.6826C20.1273 68.8044 17.875 67.7643 17.875 66.5625V48.8125C17.875 50.0605 20.1273 51.1121 24.6318 51.9673C29.1364 52.8224 34.5804 53.25 40.9639 53.25Z" fill="white"/>
</g>
<defs>
<filter id="filter0_d" x="0" y="0" width="82" height="79" filterUnits="userSpaceOnUse" color-interpolation-filters="sRGB">
<feFlood flood-opacity="0" result="BackgroundImageFix"/>
<feColorMatrix in="SourceAlpha" type="matrix" values="0 0 0 0 0 0 0 0 0 0 0 0 0 0 0 0 0 0 127 0"/>
<feOffset dy="4"/>
<feGaussianBlur stdDeviation="2"/>
<feColorMatrix type="matrix" values="0 0 0 0 0 0 0 0 0 0 0 0 0 0 0 0 0 0 0.25 0"/>
<feBlend mode="normal" in2="BackgroundImageFix" result="effect1_dropShadow"/>
<feBlend mode="normal" in="SourceGraphic" in2="effect1_dropShadow" result="shape"/>
</filter>
</defs>
</svg>
