<svg width="320" height="188" viewBox="0 0 320 188" fill="none" xmlns="http://www.w3.org/2000/svg">
<g filter="url(#filter0_d)">
<path d="M291.429 88.6747C293.791 89.5477 296.374 89.6656 298.788 89.0106C300.15 91.0547 302.168 92.6287 304.531 93.4986L292.587 111.364C292.274 111.677 291.869 111.893 291.425 111.986C290.98 112.079 290.515 112.045 290.087 111.887C289.659 111.73 289.287 111.456 289.017 111.1C288.747 110.744 288.591 110.321 288.569 109.885L291.429 88.6747ZM310.993 76.8899L310.6 76.7452C311.325 75.9367 311.833 74.97 312.081 73.927C312.329 72.884 312.31 71.7955 312.024 70.7535C311.739 69.7115 311.196 68.7468 310.442 67.9411C309.688 67.1354 308.745 66.5123 307.692 66.1248C306.64 65.7372 305.509 65.5965 304.395 65.7146C303.281 65.8327 302.218 66.2061 301.295 66.8032C300.372 67.4003 299.617 68.2035 299.092 69.1448C298.568 70.0861 298.291 71.1378 298.284 72.2107L297.891 72.066C296.595 71.589 295.187 71.4879 293.843 71.7757C292.5 72.0634 291.281 72.727 290.343 73.6825C289.404 74.638 288.787 75.8425 288.57 77.1438C288.353 78.445 288.545 79.7845 289.122 80.9928C289.699 82.2012 290.636 83.2241 291.813 83.9323C292.99 84.6405 294.356 85.0022 295.736 84.9715C297.117 84.9408 298.45 84.5192 299.569 83.76C300.687 83.0008 301.54 81.9381 302.019 80.7062C301.54 81.9381 301.455 83.2837 301.777 84.573C302.098 85.8622 302.811 87.0372 303.824 87.9493C304.838 88.8615 306.107 89.4698 307.471 89.6973C308.836 89.9249 310.234 89.7615 311.489 89.2277C312.744 88.694 313.8 87.814 314.522 86.6989C315.245 85.5838 315.603 84.2837 315.55 82.9631C315.497 81.6425 315.035 80.3606 314.224 79.2796C313.413 78.1986 312.289 77.367 310.993 76.8899Z" fill="white"/>
</g>
<g filter="url(#filter1_d)">
<path d="M73.2305 30.9238C72.5078 31.6634 71.7611 32.4492 70.9902 33.2812C70.2194 34.1133 69.2438 35.2227 68.0635 36.6094C66.8831 37.9961 65.9316 39.3828 65.209 40.7695C64.4863 42.1562 64.125 43.3581 64.125 44.375C64.125 45.623 61.8727 46.6746 57.3682 47.5298C52.8636 48.3849 47.4076 48.8125 41 48.8125C34.5924 48.8125 29.1364 48.3849 24.6318 47.5298C20.1273 46.6746 17.875 45.623 17.875 44.375C17.875 43.0345 17.2246 41.3589 15.9238 39.3481C14.623 37.3374 13.4066 35.7196 12.2744 34.4946C11.1423 33.2697 10.0221 32.1257 8.91406 31.0625C5.63802 28.0117 4 24.3138 4 19.9688C4 15.6699 5.5778 12.0067 8.7334 8.979C11.889 5.95133 15.707 4.4375 20.1875 4.4375C21.2956 4.4375 22.4518 4.55306 23.6562 4.78418C22.8854 6.67936 22.5 8.78255 22.5 11.0938C22.5 16.0397 24.0898 20.1536 27.2695 23.4355C27.1732 20.9395 27.125 18.3047 27.125 15.5312C27.125 11.2324 28.474 7.56917 31.1719 4.5415C33.8698 1.51383 37.1458 0 41 0C44.8542 0 48.1302 1.51383 50.8281 4.5415C53.526 7.56917 54.875 11.2324 54.875 15.5312C54.875 18.3509 54.8268 20.9857 54.7305 23.4355C57.9102 20.1536 59.5 16.0397 59.5 11.0938C59.5 8.78255 59.1146 6.67936 58.3438 4.78418C59.5482 4.55306 60.7044 4.4375 61.8125 4.4375C66.293 4.4375 70.111 5.95133 73.2666 8.979C76.4222 12.0067 78 15.6699 78 19.9688C78 24.2676 76.4102 27.9193 73.2305 30.9238ZM40.9639 53.25C47.3473 53.25 52.8034 52.8109 57.332 51.9326C61.8607 51.0544 64.125 50.0143 64.125 48.8125V66.5625C64.125 67.7643 61.8607 68.8044 57.332 69.6826C52.8034 70.5609 47.3473 71 40.9639 71C34.5804 71 29.1364 70.5609 24.6318 69.6826C20.1273 68.8044 17.875 67.7643 17.875 66.5625V48.8125C17.875 50.0605 20.1273 51.1121 24.6318 51.9673C29.1364 52.8224 34.5804 53.25 40.9639 53.25Z" fill="white"/>
</g>
<path d="M70.01 163.835C70.9633 163.835 71.8083 164.203 72.545 164.94L79.435 172.415C75.6217 177.138 70.92 180.757 65.33 183.27C59.7833 185.783 53.11 187.04 45.31 187.04C38.3333 187.04 32.05 185.848 26.46 183.465C20.9133 181.082 16.1683 177.767 12.225 173.52C8.28167 169.273 5.24833 164.203 3.125 158.31C1.045 152.417 0.00500046 145.982 0.00500046 139.005C0.00500046 131.942 1.13167 125.485 3.385 119.635C5.63833 113.742 8.80167 108.672 12.875 104.425C16.9917 100.178 21.8883 96.885 27.565 94.545C33.2417 92.1617 39.525 90.97 46.415 90.97C53.2617 90.97 59.3283 92.0967 64.615 94.35C69.945 96.6033 74.4733 99.55 78.2 103.19L72.35 111.315C72.0033 111.835 71.5483 112.29 70.985 112.68C70.465 113.07 69.7283 113.265 68.775 113.265C68.125 113.265 67.4533 113.092 66.76 112.745C66.0667 112.355 65.3083 111.9 64.485 111.38C63.6617 110.817 62.7083 110.21 61.625 109.56C60.5417 108.91 59.285 108.325 57.855 107.805C56.425 107.242 54.7567 106.787 52.85 106.44C50.9867 106.05 48.82 105.855 46.35 105.855C42.1467 105.855 38.29 106.613 34.78 108.13C31.3133 109.603 28.3233 111.77 25.81 114.63C23.2967 117.447 21.3467 120.913 19.96 125.03C18.5733 129.103 17.88 133.762 17.88 139.005C17.88 144.292 18.6167 148.993 20.09 153.11C21.6067 157.227 23.6433 160.693 26.2 163.51C28.7567 166.327 31.7683 168.493 35.235 170.01C38.7017 171.483 42.4283 172.22 46.415 172.22C48.7983 172.22 50.9433 172.09 52.85 171.83C54.8 171.57 56.5767 171.158 58.18 170.595C59.8267 170.032 61.365 169.317 62.795 168.45C64.2683 167.54 65.72 166.435 67.15 165.135C67.5833 164.745 68.0383 164.442 68.515 164.225C68.9917 163.965 69.49 163.835 70.01 163.835ZM104.932 126.46C107.532 124.033 110.392 122.062 113.512 120.545C116.632 119.028 120.294 118.27 124.497 118.27C128.137 118.27 131.366 118.898 134.182 120.155C136.999 121.368 139.339 123.102 141.202 125.355C143.109 127.565 144.539 130.23 145.492 133.35C146.489 136.427 146.987 139.828 146.987 143.555V186H130.932V143.555C130.932 139.482 130.001 136.34 128.137 134.13C126.274 131.877 123.436 130.75 119.622 130.75C116.849 130.75 114.249 131.378 111.822 132.635C109.396 133.892 107.099 135.603 104.932 137.77V186H88.8773V89.41H104.932V126.46ZM205.221 144.985C205.221 142.905 204.918 140.955 204.311 139.135C203.748 137.272 202.881 135.647 201.711 134.26C200.541 132.873 199.046 131.79 197.226 131.01C195.45 130.187 193.37 129.775 190.986 129.775C186.35 129.775 182.688 131.097 180.001 133.74C177.358 136.383 175.668 140.132 174.931 144.985H205.221ZM174.606 154.67C174.866 158.093 175.473 161.062 176.426 163.575C177.38 166.045 178.636 168.103 180.196 169.75C181.756 171.353 183.598 172.567 185.721 173.39C187.888 174.17 190.271 174.56 192.871 174.56C195.471 174.56 197.703 174.257 199.566 173.65C201.473 173.043 203.12 172.372 204.506 171.635C205.936 170.898 207.171 170.227 208.211 169.62C209.295 169.013 210.335 168.71 211.331 168.71C212.675 168.71 213.671 169.208 214.321 170.205L218.936 176.055C217.16 178.135 215.166 179.89 212.956 181.32C210.746 182.707 208.428 183.833 206.001 184.7C203.618 185.523 201.17 186.108 198.656 186.455C196.186 186.802 193.781 186.975 191.441 186.975C186.805 186.975 182.493 186.217 178.506 184.7C174.52 183.14 171.053 180.865 168.106 177.875C165.16 174.842 162.841 171.115 161.151 166.695C159.461 162.232 158.616 157.075 158.616 151.225C158.616 146.675 159.353 142.407 160.826 138.42C162.3 134.39 164.401 130.902 167.131 127.955C169.905 124.965 173.263 122.603 177.206 120.87C181.193 119.137 185.678 118.27 190.661 118.27C194.865 118.27 198.743 118.942 202.296 120.285C205.85 121.628 208.905 123.6 211.461 126.2C214.018 128.757 216.011 131.92 217.441 135.69C218.915 139.417 219.651 143.685 219.651 148.495C219.651 150.922 219.391 152.568 218.871 153.435C218.351 154.258 217.355 154.67 215.881 154.67H174.606ZM235.364 186V131.4L229.579 130.49C228.322 130.23 227.304 129.797 226.524 129.19C225.787 128.54 225.419 127.63 225.419 126.46V119.895H235.364V114.955C235.364 111.142 235.927 107.718 237.054 104.685C238.224 101.652 239.871 99.0733 241.994 96.95C244.161 94.8267 246.782 93.2017 249.859 92.075C252.936 90.9483 256.402 90.385 260.259 90.385C263.336 90.385 266.196 90.7967 268.839 91.62L268.514 99.68C268.471 100.287 268.297 100.785 267.994 101.175C267.691 101.522 267.279 101.803 266.759 102.02C266.282 102.193 265.719 102.323 265.069 102.41C264.419 102.453 263.726 102.475 262.989 102.475C261.082 102.475 259.371 102.692 257.854 103.125C256.381 103.515 255.124 104.23 254.084 105.27C253.044 106.267 252.242 107.61 251.679 109.3C251.159 110.947 250.899 113.005 250.899 115.475V119.895H268.254V131.335H251.419V186H235.364Z" fill="white"/>
<defs>
<filter id="filter0_d" x="284.483" y="65.6741" width="35.0719" height="54.3633" filterUnits="userSpaceOnUse" color-interpolation-filters="sRGB">
<feFlood flood-opacity="0" result="BackgroundImageFix"/>
<feColorMatrix in="SourceAlpha" type="matrix" values="0 0 0 0 0 0 0 0 0 0 0 0 0 0 0 0 0 0 127 0"/>
<feOffset dy="4"/>
<feGaussianBlur stdDeviation="2"/>
<feColorMatrix type="matrix" values="0 0 0 0 0 0 0 0 0 0 0 0 0 0 0 0 0 0 0.25 0"/>
<feBlend mode="normal" in2="BackgroundImageFix" result="effect1_dropShadow"/>
<feBlend mode="normal" in="SourceGraphic" in2="effect1_dropShadow" result="shape"/>
</filter>
<filter id="filter1_d" x="0" y="0" width="82" height="79" filterUnits="userSpaceOnUse" color-interpolation-filters="sRGB">
<feFlood flood-opacity="0" result="BackgroundImageFix"/>
<feColorMatrix in="SourceAlpha" type="matrix" values="0 0 0 0 0 0 0 0 0 0 0 0 0 0 0 0 0 0 127 0"/>
<feOffset dy="4"/>
<feGaussianBlur stdDeviation="2"/>
<feColorMatrix type="matrix" values="0 0 0 0 0 0 0 0 0 0 0 0 0 0 0 0 0 0 0.25 0"/>
<feBlend mode="normal" in2="BackgroundImageFix" result="effect1_dropShadow"/>
<feBlend mode="normal" in="SourceGraphic" in2="effect1_dropShadow" result="shape"/>
</filter>
</defs>
</svg>
