<svg height="24" viewBox="0 0 43 65" width="16" xmlns="http://www.w3.org/2000/svg"><mask id="a" fill="#fff"><path d="M0 .5h42.735v24.376H0z" fill-rule="evenodd"/></mask><g fill="#fff" fill-rule="evenodd"><path d="M3.129 17.517l.148.086c8.8 5.1 15.896 4.812 20.3 3.67 9.152-2.37 14.225-9.939 16.021-13.175-.14-.086-.313-.2-.517-.334-2.339-1.54-9.453-6.23-19.939-3.514C10.611 6.46 5.456 13.49 3.13 17.517m14.912 7.36c-4.454 0-9.976-1.132-16.231-4.757-.128-.074-.23-.133-.304-.174-.5-.277-1.191-.742-1.429-1.597-.23-.833.1-1.559.413-2.097l.08-.139c2.543-4.416 8.242-12.195 17.838-14.68 11.746-3.044 19.677 2.185 22.283 3.903.231.153.406.27.522.335.55.301 1.21.752 1.443 1.557.26.904-.192 1.72-.41 2.112l-.044.08c-1.939 3.52-7.563 11.996-17.89 14.671a25 25 0 0 1-6.27.785" mask="url(#a)" transform="translate(0 40.123)"/><path d="M8.812 22.644c3.246 6.557 7.7 9.278 10.88 10.407 6.42 2.276 12.596.125 15.296-1.104l-.049-.117c-.781-1.887-3.16-7.63-10.814-10.346-6.016-2.134-12.04-.272-15.313 1.16m16.818 14.27a20.74 20.74 0 0 1-6.967-1.176c-3.738-1.327-8.967-4.5-12.649-12.088-.046-.096-.083-.173-.111-.227-.128-.251-.52-1.015-.216-1.847.3-.822 1.079-1.173 1.373-1.305l.11-.05c3.596-1.638 10.715-4.002 17.985-1.424C34.054 21.954 36.8 28.59 37.704 30.77c.074.179.127.315.17.398.245.476.495 1.114.244 1.825-.282.8-1.02 1.148-1.373 1.316l-.062.03c-1.948.931-6.091 2.575-11.053 2.575m-12.018-25.96c4.084 1.088 6.964.293 8.692-.6 3.35-1.727 4.908-5.035 5.516-6.744-1.488-.521-4.814-1.418-8.73.603-3.13 1.615-4.72 4.66-5.478 6.741m3.807 3.49c-1.585 0-3.38-.242-5.382-.86l-.146-.045c-.621-.177-1.066-.506-1.32-.976-.382-.702-.164-1.4-.092-1.63l.022-.07c.757-2.466 2.7-6.949 7.214-9.278C21.38-.306 25.275-.505 29.289.99c.099.037.176.068.231.085.249.07.932.265 1.312.946.379.68.178 1.37.102 1.63-.571 1.998-2.4 6.827-7.255 9.332-1.462.754-3.555 1.461-6.26 1.461"/></g></svg>