<svg id="svg" version="1.1" xmlns="http://www.w3.org/2000/svg" xmlns:xlink="http://www.w3.org/1999/xlink" viewBox="0 0 400 400"><g id="svgg"><path id="path0" d="M0.000 53.633 C 0.000 110.105,0.002 110.170,1.695 104.610 C 2.716 101.256,3.124 98.280,3.616 90.600 C 4.834 71.586,8.032 58.449,12.105 55.727 C 17.739 51.962,18.172 51.929,65.400 51.716 C 115.090 51.491,133.253 52.008,145.200 53.989 C 151.490 55.031,152.844 55.150,163.510 55.600 C 174.478 56.062,187.789 56.991,194.800 57.783 C 197.550 58.093,201.330 58.462,203.200 58.601 C 205.070 58.741,209.660 59.206,213.400 59.635 C 217.140 60.064,225.948 60.953,232.972 61.610 C 239.997 62.267,247.235 63.158,249.055 63.591 C 253.133 64.559,262.173 65.868,267.000 66.190 C 273.169 66.600,277.228 67.258,282.147 68.644 C 288.195 70.349,290.100 70.673,297.200 71.204 C 304.271 71.733,307.073 72.143,312.000 73.370 C 316.640 74.526,317.447 74.661,323.000 75.210 C 329.472 75.850,343.753 78.236,350.400 79.787 C 353.590 80.532,358.180 81.441,360.600 81.807 C 363.435 82.236,366.157 82.950,368.252 83.814 C 370.040 84.552,373.010 85.440,374.852 85.788 C 379.952 86.751,382.827 87.565,383.967 88.370 C 384.535 88.771,386.350 89.772,388.000 90.593 C 395.231 94.192,395.905 97.291,396.792 131.000 C 396.989 138.480,397.349 146.670,397.593 149.200 C 398.235 155.862,399.267 162.940,399.660 163.380 C 399.847 163.589,400.000 126.914,400.000 81.880 L 400.000 0.000 200.000 0.000 L 0.000 0.000 0.000 53.633 M70.645 112.987 C 67.583 114.246,66.398 115.433,64.533 119.107 L 63.000 122.126 63.000 184.984 L 63.000 247.842 64.320 250.421 C 67.284 256.211,68.623 257.420,73.895 259.064 C 78.959 260.643,86.696 259.411,89.258 256.618 C 95.676 249.623,94.967 255.499,95.200 207.400 C 95.411 163.863,95.356 165.102,97.165 163.713 C 98.581 162.626,99.972 163.107,102.333 165.500 C 103.581 166.765,106.942 169.904,109.801 172.476 C 112.660 175.048,116.350 178.426,118.000 179.983 C 119.650 181.540,124.240 185.712,128.200 189.254 C 132.160 192.796,138.100 198.165,141.400 201.185 C 144.700 204.204,149.004 208.098,150.964 209.837 C 152.924 211.577,155.729 214.170,157.196 215.600 C 161.836 220.121,168.575 226.348,169.848 227.291 C 170.523 227.791,174.929 231.785,179.638 236.167 C 184.347 240.549,189.547 245.229,191.193 246.567 C 192.839 247.905,196.220 250.935,198.706 253.300 C 207.510 261.675,214.678 262.341,221.795 255.447 C 226.479 250.909,228.540 249.004,229.716 248.126 C 231.284 246.954,239.636 239.169,242.393 236.310 C 243.607 235.051,245.256 233.521,246.058 232.910 C 246.860 232.300,249.484 230.000,251.889 227.800 C 254.293 225.600,258.128 222.180,260.410 220.200 C 262.692 218.220,265.469 215.678,266.580 214.552 C 270.111 210.973,278.580 203.375,279.923 202.582 C 280.636 202.161,281.699 201.122,282.288 200.274 C 282.876 199.425,284.177 198.168,285.179 197.481 C 286.180 196.794,288.379 194.784,290.064 193.016 C 291.750 191.247,294.971 188.180,297.223 186.200 C 299.474 184.220,302.280 181.663,303.457 180.518 C 305.878 178.165,307.548 177.618,310.040 178.365 C 313.195 179.310,312.975 176.690,313.204 215.982 L 313.408 251.000 314.307 253.372 C 317.286 261.229,327.227 261.586,331.400 253.986 L 332.600 251.800 332.600 198.600 L 332.600 145.400 331.526 143.364 C 328.912 138.411,322.906 136.472,317.997 138.998 C 316.141 139.953,309.663 145.134,309.167 146.061 C 308.952 146.463,307.836 147.515,306.688 148.398 C 305.540 149.281,302.800 151.624,300.600 153.604 C 298.400 155.585,295.520 158.045,294.200 159.071 C 292.880 160.097,291.260 161.473,290.600 162.129 C 289.940 162.785,288.577 163.830,287.570 164.452 C 286.564 165.073,285.304 166.192,284.770 166.938 C 283.637 168.521,275.255 176.293,272.261 178.538 C 270.162 180.111,269.326 180.854,261.976 187.678 C 257.019 192.281,250.169 197.942,247.460 199.676 C 246.393 200.359,244.985 201.657,244.331 202.559 C 242.894 204.543,235.104 211.824,231.860 214.216 C 230.574 215.165,226.735 218.519,223.330 221.671 C 212.109 232.055,210.335 231.969,198.600 220.469 C 195.960 217.882,192.360 214.520,190.600 212.997 C 188.840 211.475,183.890 206.794,179.600 202.596 C 175.310 198.398,170.757 194.096,169.483 193.036 C 168.208 191.976,164.158 188.184,160.483 184.609 C 156.807 181.035,152.463 176.960,150.829 175.555 C 149.195 174.150,144.763 169.940,140.979 166.200 C 137.195 162.460,132.322 157.838,130.150 155.928 C 127.977 154.019,123.519 149.813,120.243 146.582 C 116.966 143.351,113.456 140.077,112.443 139.307 C 109.676 137.206,102.613 130.497,100.539 128.000 C 98.540 125.593,96.157 123.482,89.272 118.015 C 82.263 112.449,76.039 110.770,70.645 112.987 M399.254 247.300 C 398.132 250.876,397.296 261.199,396.785 277.800 C 395.815 309.327,394.705 313.176,385.780 315.966 C 383.688 316.620,381.037 317.690,379.888 318.343 C 378.664 319.040,375.717 320.041,372.767 320.764 C 369.998 321.442,366.668 322.366,365.367 322.817 C 362.268 323.889,351.417 326.174,345.600 326.977 C 343.070 327.327,339.920 327.966,338.600 328.397 C 334.557 329.718,331.261 330.336,324.869 330.972 C 319.733 331.482,317.979 331.842,314.069 333.187 C 308.643 335.053,307.098 335.374,300.600 335.986 C 294.538 336.556,292.213 336.940,286.000 338.396 C 282.937 339.114,277.204 339.970,271.200 340.606 C 265.810 341.177,259.420 341.906,257.000 342.225 C 254.580 342.545,249.180 343.167,245.000 343.608 C 240.820 344.049,236.950 344.494,236.400 344.598 C 234.524 344.951,214.620 346.392,206.200 346.784 C 201.580 347.000,196.270 347.456,194.400 347.799 C 181.744 350.118,168.669 350.531,107.600 350.540 C 47.297 350.549,37.812 350.246,28.267 348.001 C 26.470 347.579,22.660 347.038,19.800 346.799 C 12.973 346.228,11.766 345.875,9.769 343.860 C 6.739 340.801,4.683 329.866,3.591 311.000 C 3.024 301.212,1.827 294.219,0.535 293.146 C 0.089 292.776,0.000 301.592,0.000 346.351 L 0.000 400.000 200.000 400.000 L 400.000 400.000 400.000 323.000 C 400.000 280.650,399.924 246.000,399.831 246.000 C 399.738 246.000,399.478 246.585,399.254 247.300 " stroke="none" fill="#f7f9fa" fill-rule="evenodd"></path><path id="path1" d="M52.774 53.592 C 49.570 53.775,45.790 54.212,44.374 54.563 C 38.495 56.018,33.857 56.823,28.000 57.406 C 16.607 58.539,14.549 59.027,13.588 60.823 C 12.989 61.942,11.413 69.960,10.606 76.000 C 10.238 78.750,9.585 82.710,9.155 84.800 C 7.529 92.695,6.615 101.726,6.197 114.000 C 5.539 133.328,3.139 149.820,0.737 151.523 C 0.028 152.025,0.000 153.807,0.013 198.323 C 0.025 244.379,0.094 246.973,1.268 245.799 C 2.897 244.170,5.477 266.417,6.395 290.000 C 6.867 302.139,7.570 309.501,8.991 317.200 C 9.540 320.170,10.263 325.030,10.598 328.000 C 12.265 342.756,12.552 342.942,35.000 343.798 C 48.918 344.329,57.885 345.273,67.800 347.250 C 79.290 349.541,133.098 349.366,147.419 346.991 C 150.792 346.431,155.408 345.805,157.676 345.598 C 159.944 345.392,163.690 345.045,166.000 344.827 C 168.310 344.609,175.690 344.235,182.400 343.996 C 196.232 343.502,210.980 342.376,218.621 341.229 C 224.295 340.378,223.959 340.412,240.600 338.983 C 253.766 337.852,265.008 336.638,270.000 335.808 C 274.700 335.027,282.702 334.119,289.600 333.585 C 296.147 333.079,299.659 332.452,305.310 330.781 C 307.461 330.145,311.331 329.340,313.910 328.992 C 321.905 327.912,325.611 327.193,329.373 325.991 C 331.368 325.353,336.150 324.296,340.000 323.642 C 343.850 322.988,348.485 321.983,350.300 321.409 C 352.115 320.835,357.157 319.674,361.505 318.828 C 365.852 317.983,371.067 316.736,373.093 316.057 C 375.120 315.378,378.268 314.444,380.089 313.981 C 388.130 311.938,389.377 310.325,390.588 300.400 C 390.924 297.650,391.457 293.420,391.772 291.000 C 392.573 284.858,393.106 275.682,393.596 259.600 C 394.001 246.317,394.386 235.170,395.178 213.788 C 395.400 207.809,395.406 200.477,395.194 195.588 C 394.844 187.539,394.427 175.535,393.587 149.400 C 393.035 132.198,392.524 122.914,391.804 117.000 C 391.483 114.360,390.850 108.912,390.398 104.894 C 389.298 95.121,389.020 94.547,384.808 93.332 C 383.594 92.982,381.193 91.991,379.474 91.130 C 376.898 89.841,375.349 89.398,370.674 88.618 C 367.553 88.097,362.300 87.039,359.000 86.266 C 355.700 85.493,351.020 84.578,348.600 84.233 C 335.391 82.350,332.585 81.877,328.200 80.792 C 325.560 80.139,319.630 79.134,315.023 78.559 C 310.415 77.985,305.735 77.261,304.623 76.952 C 298.942 75.370,293.613 74.350,288.200 73.806 C 279.058 72.889,276.278 72.451,270.288 70.983 C 264.219 69.496,261.117 69.120,247.200 68.183 C 242.030 67.835,235.370 67.205,232.400 66.784 C 224.232 65.625,200.092 63.399,182.600 62.192 C 180.620 62.056,175.850 61.508,172.000 60.975 C 162.455 59.654,151.960 58.848,138.400 58.394 C 119.125 57.750,104.482 56.552,96.984 55.008 C 90.165 53.603,66.065 52.831,52.774 53.592 M81.864 108.278 C 82.995 108.974,85.303 110.119,86.993 110.823 C 90.105 112.119,94.543 115.768,101.839 123.035 C 103.184 124.374,106.965 127.942,110.242 130.965 C 113.519 133.987,119.260 139.389,123.000 142.969 C 126.740 146.549,131.247 150.743,133.017 152.288 C 134.786 153.833,139.556 158.378,143.617 162.389 C 147.677 166.399,152.452 170.904,154.226 172.399 C 156.000 173.893,159.420 177.123,161.826 179.574 C 164.232 182.026,167.908 185.509,169.996 187.314 C 172.084 189.118,177.214 193.989,181.396 198.138 C 185.578 202.287,189.900 206.358,191.000 207.186 C 192.100 208.013,196.031 211.640,199.736 215.245 C 210.727 225.940,211.492 226.061,220.031 218.449 C 222.899 215.892,226.207 212.990,227.382 212.000 C 228.557 211.010,231.084 208.850,232.999 207.200 C 234.914 205.550,237.285 203.635,238.267 202.945 C 239.249 202.255,241.015 200.725,242.192 199.545 C 243.368 198.365,245.561 196.283,247.065 194.917 C 248.569 193.552,251.870 190.553,254.400 188.253 C 256.930 185.953,259.540 183.662,260.200 183.162 C 260.860 182.662,262.487 181.251,263.816 180.027 C 271.571 172.879,277.181 168.024,279.154 166.754 C 280.389 165.959,281.630 164.919,281.911 164.443 C 282.192 163.966,283.412 162.943,284.623 162.168 C 285.833 161.394,287.324 160.070,287.935 159.226 C 289.451 157.134,296.337 150.768,300.000 148.072 C 301.650 146.857,305.204 143.731,307.899 141.124 C 315.488 133.781,318.719 132.085,324.344 132.490 C 330.770 132.953,335.371 137.343,337.247 144.800 C 338.219 148.665,338.052 249.852,337.069 252.771 C 335.313 257.983,332.803 260.780,327.081 263.900 C 321.712 266.828,312.940 262.221,309.121 254.471 C 308.013 252.221,307.602 235.156,307.915 204.400 C 308.152 181.117,308.414 181.586,299.821 189.900 C 293.079 196.422,290.665 198.449,288.086 199.757 C 286.670 200.474,285.662 201.355,284.938 202.506 C 283.824 204.280,275.612 212.554,273.200 214.333 C 270.278 216.488,266.199 220.270,260.582 226.032 C 257.000 229.708,253.146 233.155,250.617 234.944 C 249.728 235.574,246.120 238.940,242.600 242.425 C 239.080 245.910,235.084 249.625,233.719 250.681 C 232.355 251.736,230.298 253.320,229.149 254.200 C 228.000 255.080,225.967 256.896,224.630 258.236 C 222.218 260.653,219.336 262.857,216.748 264.262 C 214.904 265.263,207.736 265.272,205.454 264.277 C 203.489 263.420,200.263 260.872,194.645 255.738 C 192.200 253.504,189.120 250.878,187.800 249.903 C 186.480 248.927,182.492 245.265,178.938 241.764 C 175.384 238.264,171.154 234.276,169.538 232.902 C 163.806 228.027,161.726 226.146,156.991 221.554 C 154.356 218.998,150.760 215.769,149.000 214.377 C 147.240 212.985,143.136 209.187,139.881 205.937 C 136.625 202.686,133.385 199.626,132.681 199.135 C 129.956 197.238,121.953 190.098,120.202 188.002 C 119.468 187.124,118.307 185.933,117.621 185.357 C 116.936 184.780,115.831 183.517,115.165 182.549 C 114.417 181.463,113.231 180.424,112.060 179.830 C 111.017 179.302,109.272 178.089,108.182 177.135 C 105.324 174.633,102.363 172.242,101.138 171.447 C 98.725 169.881,98.801 168.676,98.788 208.789 C 98.773 251.791,98.728 252.397,95.270 255.956 C 94.301 256.952,93.242 258.175,92.915 258.674 C 92.588 259.172,90.944 260.425,89.260 261.456 C 83.482 264.999,83.474 265.001,78.600 264.988 C 73.984 264.974,73.076 264.716,70.200 262.597 C 69.540 262.111,68.031 261.196,66.846 260.564 C 64.603 259.366,61.852 256.381,60.272 253.429 L 59.400 251.800 59.281 186.000 C 59.148 112.540,58.988 116.993,61.872 113.624 C 67.347 107.228,76.276 104.840,81.864 108.278 " stroke="none" fill="#066eb7" fill-rule="evenodd"></path><path id="path2" d="M40.713 52.695 C 41.876 52.776,43.676 52.776,44.713 52.693 C 45.751 52.611,44.800 52.545,42.600 52.546 C 40.400 52.547,39.551 52.614,40.713 52.695 M94.300 52.696 C 95.675 52.774,97.925 52.774,99.300 52.696 C 100.675 52.618,99.550 52.554,96.800 52.554 C 94.050 52.554,92.925 52.618,94.300 52.696 M32.505 53.087 C 33.114 53.179,34.014 53.177,34.505 53.082 C 34.997 52.987,34.500 52.911,33.400 52.914 C 32.300 52.917,31.897 52.995,32.505 53.087 M109.100 53.089 C 109.815 53.178,110.985 53.178,111.700 53.089 C 112.415 53.001,111.830 52.928,110.400 52.928 C 108.970 52.928,108.385 53.001,109.100 53.089 M26.600 53.816 C 25.500 54.117,22.191 54.996,19.247 55.770 C 12.549 57.531,10.363 59.024,10.419 61.800 C 10.428 62.251,10.682 61.901,11.001 61.000 C 11.803 58.734,13.064 57.824,16.658 56.919 C 18.386 56.484,21.330 55.729,23.200 55.241 C 25.070 54.752,27.590 54.109,28.800 53.810 C 30.342 53.429,30.641 53.267,29.800 53.268 C 29.140 53.268,27.700 53.514,26.600 53.816 M115.800 53.458 C 116.460 53.546,119.340 54.052,122.200 54.582 C 128.530 55.754,134.719 56.424,138.316 56.328 C 140.584 56.267,140.690 56.236,139.000 56.130 C 134.983 55.877,129.082 55.134,125.288 54.401 C 123.149 53.989,119.870 53.571,118.000 53.474 C 116.130 53.376,115.140 53.369,115.800 53.458 M142.291 56.689 C 143.001 56.777,144.261 56.779,145.091 56.692 C 145.921 56.605,145.340 56.533,143.800 56.531 C 142.260 56.529,141.581 56.600,142.291 56.689 M148.707 57.090 C 149.426 57.179,150.506 57.177,151.107 57.086 C 151.708 56.995,151.120 56.922,149.800 56.924 C 148.480 56.926,147.988 57.001,148.707 57.090 M155.100 57.493 C 156.035 57.577,157.565 57.577,158.500 57.493 C 159.435 57.409,158.670 57.340,156.800 57.340 C 154.930 57.340,154.165 57.409,155.100 57.493 M163.491 57.889 C 164.201 57.977,165.461 57.979,166.291 57.892 C 167.121 57.805,166.540 57.733,165.000 57.731 C 163.460 57.729,162.781 57.800,163.491 57.889 M170.105 58.287 C 170.714 58.379,171.614 58.377,172.105 58.282 C 172.597 58.187,172.100 58.111,171.000 58.114 C 169.900 58.117,169.497 58.195,170.105 58.287 M174.105 58.687 C 174.714 58.779,175.614 58.777,176.105 58.682 C 176.597 58.587,176.100 58.511,175.000 58.514 C 173.900 58.517,173.497 58.595,174.105 58.687 M179.200 59.217 C 180.410 59.384,182.210 59.512,183.200 59.502 C 184.844 59.484,184.792 59.457,182.600 59.185 C 181.280 59.021,179.480 58.893,178.600 58.900 C 177.226 58.911,177.311 58.956,179.200 59.217 M186.105 59.887 C 186.714 59.979,187.614 59.977,188.105 59.882 C 188.597 59.787,188.100 59.711,187.000 59.714 C 185.900 59.717,185.497 59.795,186.105 59.887 M191.400 60.418 C 194.147 60.846,196.431 60.812,194.000 60.380 C 193.010 60.203,191.570 60.070,190.800 60.083 C 189.655 60.103,189.765 60.164,191.400 60.418 M197.105 61.083 C 197.602 61.179,198.322 61.175,198.705 61.075 C 199.087 60.975,198.680 60.896,197.800 60.901 C 196.920 60.905,196.607 60.987,197.105 61.083 M201.900 61.489 C 202.615 61.578,203.785 61.578,204.500 61.489 C 205.215 61.401,204.630 61.328,203.200 61.328 C 201.770 61.328,201.185 61.401,201.900 61.489 M207.705 61.887 C 208.314 61.979,209.214 61.977,209.705 61.882 C 210.197 61.787,209.700 61.711,208.600 61.714 C 207.500 61.717,207.097 61.795,207.705 61.887 M212.305 62.283 C 212.802 62.379,213.522 62.375,213.905 62.275 C 214.287 62.175,213.880 62.096,213.000 62.101 C 212.120 62.105,211.807 62.187,212.305 62.283 M217.100 62.682 C 217.595 62.778,218.405 62.778,218.900 62.682 C 219.395 62.587,218.990 62.509,218.000 62.509 C 217.010 62.509,216.605 62.587,217.100 62.682 M8.696 70.516 C 6.908 79.655,5.989 85.355,6.040 87.000 C 6.061 87.660,6.329 86.580,6.637 84.600 C 6.944 82.620,7.931 77.082,8.829 72.293 C 9.727 67.505,10.403 63.417,10.331 63.210 C 10.259 63.002,9.523 66.290,8.696 70.516 M221.500 63.082 C 221.995 63.178,222.805 63.178,223.300 63.082 C 223.795 62.987,223.390 62.909,222.400 62.909 C 221.410 62.909,221.005 62.987,221.500 63.082 M226.705 63.483 C 227.202 63.579,227.922 63.575,228.305 63.475 C 228.687 63.375,228.280 63.296,227.400 63.301 C 226.520 63.305,226.207 63.387,226.705 63.483 M236.100 64.676 C 236.485 64.776,237.115 64.776,237.500 64.676 C 237.885 64.575,237.570 64.493,236.800 64.493 C 236.030 64.493,235.715 64.575,236.100 64.676 M5.724 90.600 C 5.726 91.920,5.801 92.412,5.890 91.693 C 5.979 90.974,5.977 89.894,5.886 89.293 C 5.795 88.692,5.722 89.280,5.724 90.600 M5.328 95.600 C 5.328 97.030,5.401 97.615,5.489 96.900 C 5.578 96.185,5.578 95.015,5.489 94.300 C 5.401 93.585,5.328 94.170,5.328 95.600 M4.249 106.200 C 3.199 117.706,2.408 121.545,0.783 123.015 C 0.004 123.720,-0.406 127.608,0.300 127.594 C 1.493 127.570,2.447 125.124,3.364 119.746 C 4.019 115.897,5.354 100.079,5.122 98.915 C 5.043 98.522,4.650 101.800,4.249 106.200 M69.600 110.411 C 65.055 112.913,62.227 116.020,61.183 119.660 C 60.604 121.679,60.631 247.214,61.211 249.896 C 62.708 256.817,73.002 263.917,80.231 263.013 C 84.223 262.515,89.749 259.389,92.946 255.820 C 97.305 250.954,96.937 255.058,97.185 208.561 C 97.441 160.465,96.814 164.238,103.550 170.219 C 110.907 176.751,112.208 177.846,113.693 178.749 C 114.514 179.248,115.587 180.229,116.077 180.928 C 117.535 183.010,125.601 190.725,131.207 195.400 C 133.054 196.940,136.827 200.360,139.592 203.000 C 145.249 208.401,148.942 211.666,152.901 214.762 C 154.387 215.924,155.737 217.106,155.901 217.388 C 156.376 218.204,167.144 228.318,170.819 231.400 C 172.655 232.940,175.518 235.550,177.180 237.200 C 181.153 241.142,189.031 248.352,190.800 249.664 C 191.570 250.235,194.000 252.394,196.200 254.461 C 207.810 265.369,214.255 265.882,223.750 256.655 C 225.140 255.305,227.667 253.030,229.365 251.600 C 234.624 247.174,237.246 244.787,241.600 240.462 C 243.910 238.168,246.807 235.460,248.039 234.445 C 252.604 230.683,258.306 225.626,261.887 222.164 C 265.576 218.598,267.598 216.731,274.900 210.150 C 277.045 208.217,278.800 206.504,278.800 206.343 C 278.800 206.181,279.609 205.469,280.597 204.759 C 281.585 204.049,282.697 203.003,283.068 202.434 C 283.438 201.865,282.240 202.750,280.404 204.400 C 274.201 209.978,265.023 218.384,260.800 222.356 C 257.061 225.873,253.110 229.386,248.200 233.560 C 247.320 234.308,244.714 236.738,242.409 238.960 C 237.097 244.080,232.968 247.849,228.780 251.400 C 226.964 252.940,224.470 255.200,223.239 256.421 C 214.691 264.902,207.591 264.354,197.049 254.399 C 194.602 252.088,191.790 249.577,190.800 248.820 C 188.591 247.130,180.823 239.971,175.416 234.643 C 173.207 232.467,170.680 230.160,169.800 229.517 C 168.155 228.316,155.718 216.903,155.514 216.408 C 155.451 216.256,154.050 214.981,152.400 213.575 C 148.353 210.126,147.298 209.174,139.624 202.051 C 135.981 198.669,131.560 194.689,129.800 193.207 C 125.607 189.674,118.097 182.591,116.686 180.839 C 116.073 180.078,114.903 179.010,114.086 178.467 C 113.269 177.923,111.520 176.465,110.200 175.226 C 105.071 170.412,99.622 166.000,98.805 166.000 C 96.580 166.000,96.618 165.317,96.400 209.400 C 96.169 256.006,96.653 251.146,91.740 256.244 C 82.863 265.459,68.399 263.151,62.683 251.609 L 61.400 249.017 61.282 187.409 C 61.144 115.262,60.920 119.299,65.328 114.501 C 69.748 109.691,74.848 108.703,81.400 111.389 C 88.999 114.503,90.922 116.010,105.027 129.897 C 108.657 133.471,112.566 137.093,113.713 137.947 C 114.861 138.801,118.140 141.872,121.000 144.772 C 123.860 147.671,127.910 151.510,130.000 153.303 C 132.090 155.095,137.310 159.997,141.600 164.195 C 145.890 168.394,150.654 172.902,152.186 174.214 C 153.719 175.526,158.219 179.736,162.186 183.570 C 166.154 187.403,170.750 191.658,172.400 193.025 C 174.050 194.392,177.560 197.739,180.200 200.464 C 182.840 203.188,187.233 207.394,189.963 209.809 C 192.693 212.224,196.973 216.238,199.475 218.729 C 204.067 223.301,208.595 226.749,210.153 226.860 C 213.709 227.114,215.650 226.076,221.200 220.954 C 223.730 218.620,227.120 215.648,228.732 214.350 C 233.164 210.784,236.007 208.325,237.161 207.061 C 237.732 206.435,239.027 205.315,240.037 204.573 C 241.048 203.831,242.378 202.498,242.993 201.610 C 243.608 200.723,244.761 199.596,245.556 199.106 C 246.350 198.617,248.012 197.312,249.249 196.208 C 250.485 195.104,253.181 192.760,255.239 191.000 C 257.297 189.240,260.066 186.804,261.391 185.587 C 263.972 183.217,268.419 179.344,272.017 176.334 C 273.237 175.314,276.965 171.986,280.302 168.940 C 288.884 161.103,294.297 156.305,299.600 151.831 C 302.130 149.697,306.394 145.961,309.075 143.530 C 318.974 134.551,325.360 133.212,331.173 138.895 C 335.001 142.637,334.855 140.124,334.719 200.200 L 334.600 252.600 333.456 254.929 C 330.713 260.516,323.765 263.333,319.000 260.791 C 315.034 258.675,314.124 257.792,312.508 254.486 L 311.000 251.400 310.800 217.600 C 310.615 186.256,310.549 183.706,309.893 182.506 C 308.272 179.540,306.373 180.272,299.872 186.366 C 291.539 194.176,287.811 197.542,286.200 198.708 C 285.320 199.345,284.337 200.212,284.015 200.633 C 283.694 201.055,283.964 200.928,284.615 200.352 C 285.267 199.775,286.340 198.969,287.000 198.560 C 287.660 198.152,291.315 194.933,295.121 191.409 C 306.551 180.826,307.198 180.409,309.038 182.442 C 309.771 183.252,309.808 184.556,310.000 216.942 L 310.200 250.600 311.107 252.842 C 315.723 264.253,328.986 265.427,333.939 254.864 L 335.000 252.600 335.249 226.600 C 335.655 184.207,335.629 151.308,335.187 147.451 C 334.283 139.562,329.819 135.002,323.000 135.002 C 318.227 135.002,315.949 136.382,307.188 144.581 C 305.532 146.132,302.019 149.144,299.383 151.277 C 296.746 153.409,292.733 156.964,290.463 159.177 C 288.194 161.389,286.150 163.200,285.920 163.200 C 285.690 163.200,284.379 164.325,283.007 165.700 C 281.635 167.075,279.348 169.190,277.924 170.400 C 275.193 172.721,267.739 179.207,258.032 187.708 C 254.825 190.517,250.784 194.027,249.053 195.508 C 247.323 196.989,244.605 199.460,243.015 201.000 C 239.515 204.388,232.135 210.881,229.625 212.781 C 228.621 213.541,225.370 216.393,222.400 219.120 C 211.691 228.951,210.675 228.874,198.982 217.341 C 195.892 214.293,192.292 210.910,190.982 209.822 C 189.672 208.734,185.270 204.589,181.200 200.610 C 177.130 196.631,171.820 191.631,169.400 189.500 C 166.980 187.369,162.930 183.529,160.400 180.967 C 157.870 178.405,154.345 175.085,152.566 173.590 C 150.788 172.094,146.357 167.930,142.719 164.335 C 139.082 160.741,134.125 156.047,131.704 153.905 C 129.283 151.763,125.614 148.336,123.551 146.290 C 121.488 144.244,118.360 141.252,116.600 139.642 C 110.279 133.857,109.273 132.910,102.583 126.438 C 93.640 117.786,88.356 113.392,85.699 112.397 C 84.543 111.964,82.473 111.039,81.099 110.340 C 76.979 108.246,73.495 108.267,69.600 110.411 M394.514 127.800 C 394.517 128.900,394.595 129.303,394.687 128.695 C 394.779 128.086,394.777 127.186,394.682 126.695 C 394.587 126.203,394.511 126.700,394.514 127.800 M394.893 142.400 C 394.893 143.170,394.975 143.485,395.076 143.100 C 395.176 142.715,395.176 142.085,395.076 141.700 C 394.975 141.315,394.893 141.630,394.893 142.400 M395.293 151.200 C 395.293 151.970,395.375 152.285,395.476 151.900 C 395.576 151.515,395.576 150.885,395.476 150.500 C 395.375 150.115,395.293 150.430,395.293 151.200 M395.720 164.000 C 395.720 165.210,395.795 165.705,395.887 165.100 C 395.978 164.495,395.978 163.505,395.887 162.900 C 395.795 162.295,395.720 162.790,395.720 164.000 M398.449 188.320 C 398.404 190.262,399.352 193.181,399.862 192.671 C 399.974 192.560,399.864 192.093,399.618 191.633 C 399.372 191.174,399.020 189.764,398.834 188.499 L 398.498 186.200 398.449 188.320 M399.496 215.867 C 399.330 216.124,399.104 217.204,398.993 218.267 C 398.883 219.330,398.898 219.930,399.026 219.600 C 399.154 219.270,399.441 218.622,399.665 218.160 C 400.129 217.200,399.977 215.126,399.496 215.867 M397.701 227.800 C 397.705 228.680,397.787 228.993,397.883 228.495 C 397.979 227.998,397.975 227.278,397.875 226.895 C 397.775 226.513,397.696 226.920,397.701 227.800 M395.701 245.800 C 395.705 246.680,395.787 246.993,395.883 246.495 C 395.979 245.998,395.975 245.278,395.875 244.895 C 395.775 244.513,395.696 244.920,395.701 245.800 M395.301 257.400 C 395.305 258.280,395.387 258.593,395.483 258.095 C 395.579 257.598,395.575 256.878,395.475 256.495 C 395.375 256.113,395.296 256.520,395.301 257.400 M0.000 273.078 C 0.000 274.976,0.155 275.535,0.812 276.009 C 2.372 277.133,3.294 281.812,4.395 294.200 L 4.750 298.200 4.559 293.400 C 4.056 280.752,2.388 271.508,0.500 270.896 C 0.138 270.778,0.000 271.383,0.000 273.078 M394.493 280.800 C 394.493 281.570,394.575 281.885,394.676 281.500 C 394.776 281.115,394.776 280.485,394.676 280.100 C 394.575 279.715,394.493 280.030,394.493 280.800 M4.914 300.600 C 4.917 301.700,4.995 302.103,5.087 301.495 C 5.179 300.886,5.177 299.986,5.082 299.495 C 4.987 299.003,4.911 299.500,4.914 300.600 M5.328 306.000 C 5.328 307.430,5.401 308.015,5.489 307.300 C 5.578 306.585,5.578 305.415,5.489 304.700 C 5.401 303.985,5.328 304.570,5.328 306.000 M5.728 312.000 C 5.728 313.430,5.801 314.015,5.889 313.300 C 5.978 312.585,5.978 311.415,5.889 310.700 C 5.801 309.985,5.728 310.570,5.728 312.000 M6.216 317.600 C 6.961 328.775,10.091 341.717,12.400 343.165 C 13.278 343.715,13.253 343.641,12.193 342.558 C 10.313 340.636,8.872 334.493,6.619 318.800 C 6.081 315.053,6.037 314.924,6.216 317.600 M259.905 339.483 C 260.402 339.579,261.122 339.575,261.505 339.475 C 261.887 339.375,261.480 339.296,260.600 339.301 C 259.720 339.305,259.407 339.387,259.905 339.483 M255.700 339.876 C 256.085 339.976,256.715 339.976,257.100 339.876 C 257.485 339.775,257.170 339.693,256.400 339.693 C 255.630 339.693,255.315 339.775,255.700 339.876 M251.700 340.276 C 252.085 340.376,252.715 340.376,253.100 340.276 C 253.485 340.175,253.170 340.093,252.400 340.093 C 251.630 340.093,251.315 340.175,251.700 340.276 M247.505 340.683 C 248.002 340.779,248.722 340.775,249.105 340.675 C 249.487 340.575,249.080 340.496,248.200 340.501 C 247.320 340.505,247.007 340.587,247.505 340.683 M242.705 341.083 C 243.202 341.179,243.922 341.175,244.305 341.075 C 244.687 340.975,244.280 340.896,243.400 340.901 C 242.520 340.905,242.207 340.987,242.705 341.083 M235.300 341.876 C 235.685 341.976,236.315 341.976,236.700 341.876 C 237.085 341.775,236.770 341.693,236.000 341.693 C 235.230 341.693,234.915 341.775,235.300 341.876 M232.100 342.276 C 232.485 342.376,233.115 342.376,233.500 342.276 C 233.885 342.175,233.570 342.093,232.800 342.093 C 232.030 342.093,231.715 342.175,232.100 342.276 M228.705 342.683 C 229.202 342.779,229.922 342.775,230.305 342.675 C 230.687 342.575,230.280 342.496,229.400 342.501 C 228.520 342.505,228.207 342.587,228.705 342.683 M224.900 343.076 C 225.285 343.176,225.915 343.176,226.300 343.076 C 226.685 342.975,226.370 342.893,225.600 342.893 C 224.830 342.893,224.515 342.975,224.900 343.076 M221.300 343.476 C 221.685 343.576,222.315 343.576,222.700 343.476 C 223.085 343.375,222.770 343.293,222.000 343.293 C 221.230 343.293,220.915 343.375,221.300 343.476 M217.505 343.883 C 218.002 343.979,218.722 343.975,219.105 343.875 C 219.487 343.775,219.080 343.696,218.200 343.701 C 217.320 343.705,217.007 343.787,217.505 343.883 M212.500 344.287 C 213.105 344.378,214.095 344.378,214.700 344.287 C 215.305 344.195,214.810 344.120,213.600 344.120 C 212.390 344.120,211.895 344.195,212.500 344.287 M18.300 344.682 C 18.795 344.778,19.605 344.778,20.100 344.682 C 20.595 344.587,20.190 344.509,19.200 344.509 C 18.210 344.509,17.805 344.587,18.300 344.682 M205.300 344.691 C 206.125 344.778,207.475 344.778,208.300 344.691 C 209.125 344.605,208.450 344.534,206.800 344.534 C 205.150 344.534,204.475 344.605,205.300 344.691 M23.305 345.087 C 23.914 345.179,24.814 345.177,25.305 345.082 C 25.797 344.987,25.300 344.911,24.200 344.914 C 23.100 344.917,22.697 344.995,23.305 345.087 M198.105 345.087 C 198.714 345.179,199.614 345.177,200.105 345.082 C 200.597 344.987,200.100 344.911,199.000 344.914 C 197.900 344.917,197.497 344.995,198.105 345.087 M27.705 345.487 C 28.314 345.579,29.214 345.577,29.705 345.482 C 30.197 345.387,29.700 345.311,28.600 345.314 C 27.500 345.317,27.097 345.395,27.705 345.487 M192.100 345.487 C 192.705 345.578,193.695 345.578,194.300 345.487 C 194.905 345.395,194.410 345.320,193.200 345.320 C 191.990 345.320,191.495 345.395,192.100 345.487 M35.476 346.180 C 37.937 346.478,41.562 347.100,43.532 347.562 C 45.501 348.025,48.257 348.496,49.656 348.610 C 51.873 348.791,51.609 348.685,47.600 347.790 C 41.222 346.365,39.582 346.114,35.000 345.860 L 31.000 345.639 35.476 346.180 M181.000 346.011 C 177.255 346.319,174.674 346.698,167.600 347.976 C 165.290 348.393,163.946 348.749,164.614 348.767 C 165.281 348.785,168.611 348.337,172.014 347.770 C 175.416 347.204,180.810 346.506,184.000 346.220 C 187.355 345.919,188.704 345.703,187.200 345.707 C 185.770 345.711,182.980 345.848,181.000 346.011 M53.700 349.087 C 54.305 349.178,55.295 349.178,55.900 349.087 C 56.505 348.995,56.010 348.920,54.800 348.920 C 53.590 348.920,53.095 348.995,53.700 349.087 M160.505 349.087 C 161.114 349.179,162.014 349.177,162.505 349.082 C 162.997 348.987,162.500 348.911,161.400 348.914 C 160.300 348.917,159.897 348.995,160.505 349.087 M61.700 349.494 C 62.745 349.576,64.455 349.576,65.500 349.494 C 66.545 349.412,65.690 349.344,63.600 349.344 C 61.510 349.344,60.655 349.412,61.700 349.494 M148.713 349.495 C 149.876 349.576,151.676 349.576,152.713 349.493 C 153.751 349.411,152.800 349.345,150.600 349.346 C 148.400 349.347,147.551 349.414,148.713 349.495 M94.500 349.900 C 100.825 349.962,111.175 349.962,117.500 349.900 C 123.825 349.838,118.650 349.787,106.000 349.787 C 93.350 349.787,88.175 349.838,94.500 349.900 " stroke="none" fill="#7cb4db" fill-rule="evenodd"></path><path id="path3" d="M39.200 52.802 C 31.999 53.129,30.057 53.424,23.400 55.199 C 21.640 55.669,18.761 56.409,17.002 56.845 C 10.891 58.358,11.644 56.519,7.357 80.400 C 6.784 83.594,5.901 91.928,5.197 100.800 C 3.641 120.393,2.562 126.841,0.742 127.418 C 0.041 127.641,0.000 128.322,-0.000 139.830 C -0.000 165.502,5.179 143.915,6.197 114.000 C 6.615 101.726,7.529 92.695,9.155 84.800 C 9.585 82.710,10.238 78.750,10.606 76.000 C 11.413 69.960,12.989 61.942,13.588 60.823 C 14.550 59.025,16.514 58.562,28.066 57.409 C 33.606 56.856,39.446 55.836,44.400 54.555 C 51.822 52.636,86.935 52.938,96.979 55.007 C 104.482 56.552,119.121 57.749,138.400 58.394 C 151.960 58.848,162.455 59.654,172.000 60.975 C 175.850 61.508,180.620 62.056,182.600 62.192 C 200.092 63.399,224.232 65.625,232.400 66.784 C 235.370 67.205,242.030 67.835,247.200 68.183 C 261.117 69.120,264.219 69.496,270.288 70.983 C 276.278 72.451,279.058 72.889,288.200 73.806 C 293.613 74.350,298.942 75.370,304.623 76.952 C 305.735 77.261,310.415 77.985,315.023 78.559 C 319.630 79.134,325.560 80.139,328.200 80.792 C 332.585 81.877,335.391 82.350,348.600 84.233 C 351.020 84.578,355.700 85.493,359.000 86.266 C 362.300 87.039,367.553 88.097,370.674 88.618 C 375.349 89.398,376.898 89.841,379.474 91.130 C 381.193 91.991,383.594 92.982,384.808 93.332 C 389.020 94.547,389.298 95.121,390.398 104.894 C 390.850 108.912,391.483 114.360,391.804 117.000 C 392.524 122.914,393.035 132.198,393.587 149.400 C 394.427 175.535,394.844 187.539,395.194 195.588 C 395.406 200.477,395.400 207.809,395.178 213.788 C 394.386 235.170,394.001 246.317,393.596 259.600 C 393.106 275.682,392.573 284.858,391.772 291.000 C 391.457 293.420,390.924 297.650,390.588 300.400 C 389.377 310.325,388.130 311.938,380.089 313.981 C 378.268 314.444,375.120 315.378,373.093 316.057 C 371.067 316.736,365.852 317.983,361.505 318.828 C 357.157 319.674,352.115 320.835,350.300 321.409 C 348.485 321.983,343.850 322.988,340.000 323.642 C 336.150 324.296,331.368 325.353,329.373 325.991 C 325.611 327.193,321.905 327.912,313.910 328.992 C 311.331 329.340,307.461 330.145,305.310 330.781 C 299.659 332.452,296.147 333.079,289.600 333.585 C 282.702 334.119,274.700 335.027,270.000 335.808 C 265.008 336.638,253.766 337.852,240.600 338.983 C 223.959 340.412,224.295 340.378,218.621 341.229 C 210.980 342.376,196.232 343.502,182.400 343.996 C 175.690 344.235,168.310 344.609,166.000 344.827 C 163.690 345.045,159.944 345.392,157.676 345.598 C 155.408 345.805,150.792 346.431,147.419 346.991 C 133.098 349.366,79.290 349.541,67.800 347.250 C 57.885 345.273,48.918 344.329,35.000 343.798 C 12.552 342.942,12.265 342.756,10.598 328.000 C 10.263 325.030,9.540 320.170,8.991 317.200 C 7.570 309.501,6.867 302.139,6.395 290.000 C 5.477 266.417,2.897 244.170,1.268 245.799 C 1.164 245.903,0.842 245.675,0.552 245.294 C 0.113 244.715,0.023 246.770,0.013 257.657 C 0.002 268.778,0.087 270.748,0.587 270.940 C 2.408 271.638,3.603 278.128,4.611 292.784 C 6.255 316.681,6.438 318.431,8.622 331.200 C 10.921 344.640,9.167 343.578,32.400 345.596 C 37.934 346.076,43.155 346.774,45.958 347.407 C 53.775 349.173,56.007 349.260,98.800 349.470 C 144.149 349.693,159.983 349.354,167.400 348.002 C 175.569 346.513,180.154 346.034,194.000 345.221 C 201.590 344.776,209.510 344.309,211.600 344.184 C 213.690 344.059,220.980 343.337,227.800 342.580 C 238.789 341.361,246.414 340.601,261.800 339.193 C 266.875 338.728,275.842 337.492,282.200 336.379 C 284.620 335.956,289.840 335.245,293.800 334.800 C 302.738 333.795,304.296 333.513,309.129 332.025 C 313.286 330.745,317.439 329.944,323.795 329.195 C 325.992 328.936,329.862 328.127,332.395 327.398 C 337.583 325.905,339.596 325.479,345.599 324.604 C 347.909 324.267,351.419 323.553,353.399 323.017 C 355.380 322.482,360.658 321.218,365.129 320.209 C 369.601 319.200,375.091 317.682,377.329 316.836 C 379.568 315.990,382.478 314.988,383.795 314.610 C 392.208 312.195,393.736 306.430,394.795 273.118 C 395.515 250.481,396.034 238.653,396.425 236.000 C 397.498 228.712,398.082 224.598,398.604 220.631 C 398.920 218.227,399.364 216.076,399.589 215.851 C 400.463 214.977,400.113 193.405,399.201 191.910 C 398.686 191.065,398.402 189.890,398.400 188.600 C 398.398 187.500,398.116 184.890,397.774 182.800 C 396.042 172.235,395.890 169.831,394.813 135.800 C 394.353 121.278,394.134 117.351,393.366 109.842 C 391.954 96.052,391.232 94.097,386.922 92.392 C 385.645 91.887,383.520 90.884,382.200 90.163 C 379.807 88.856,377.498 88.186,371.359 87.017 C 369.577 86.677,366.337 85.863,364.159 85.206 C 361.982 84.550,355.250 83.193,349.200 82.190 C 343.150 81.188,335.680 79.849,332.600 79.216 C 329.520 78.582,323.726 77.683,319.724 77.218 C 315.606 76.740,310.040 75.782,306.898 75.010 C 303.241 74.112,298.218 73.295,292.174 72.614 C 286.037 71.923,281.146 71.123,277.400 70.198 C 270.945 68.605,268.793 68.275,259.200 67.408 C 252.659 66.817,249.184 66.395,234.400 64.400 C 228.928 63.662,216.340 62.513,203.800 61.607 C 200.720 61.385,195.770 60.932,192.800 60.600 C 181.693 59.361,167.230 58.040,162.200 57.805 C 140.344 56.788,129.060 55.879,122.398 54.600 C 113.251 52.843,62.419 51.744,39.200 52.802 M70.041 107.593 C 67.487 108.785,63.486 111.738,61.872 113.624 C 58.988 116.993,59.148 112.540,59.281 186.000 L 59.400 251.800 60.272 253.429 C 61.852 256.381,64.603 259.366,66.846 260.564 C 68.031 261.196,69.540 262.111,70.200 262.597 C 73.076 264.716,73.984 264.974,78.600 264.988 C 83.474 265.001,83.482 264.999,89.260 261.456 C 90.944 260.425,92.588 259.172,92.915 258.674 C 93.242 258.175,94.301 256.952,95.270 255.956 C 98.728 252.397,98.773 251.791,98.788 208.789 C 98.801 168.676,98.725 169.881,101.138 171.447 C 102.363 172.242,105.324 174.633,108.182 177.135 C 109.272 178.089,111.017 179.302,112.060 179.830 C 113.231 180.424,114.417 181.463,115.165 182.549 C 115.831 183.517,116.936 184.780,117.621 185.357 C 118.307 185.933,119.468 187.124,120.202 188.002 C 121.953 190.098,129.956 197.238,132.681 199.135 C 133.385 199.626,136.625 202.686,139.881 205.937 C 143.136 209.187,147.240 212.985,149.000 214.377 C 150.760 215.769,154.356 218.998,156.991 221.554 C 161.726 226.146,163.806 228.027,169.538 232.902 C 171.154 234.276,175.384 238.264,178.938 241.764 C 182.492 245.265,186.480 248.927,187.800 249.903 C 189.120 250.878,192.200 253.504,194.645 255.738 C 200.263 260.872,203.489 263.420,205.454 264.277 C 207.736 265.272,214.904 265.263,216.748 264.262 C 219.336 262.857,222.218 260.653,224.630 258.236 C 225.967 256.896,228.000 255.080,229.149 254.200 C 230.298 253.320,232.355 251.736,233.719 250.681 C 235.084 249.625,239.080 245.910,242.600 242.425 C 246.120 238.940,249.728 235.574,250.617 234.944 C 253.146 233.155,257.000 229.708,260.582 226.032 C 266.199 220.270,270.278 216.488,273.200 214.333 C 275.612 212.554,283.824 204.280,284.938 202.506 C 285.662 201.355,286.670 200.474,288.086 199.757 C 290.665 198.449,293.079 196.422,299.821 189.900 C 308.414 181.586,308.152 181.117,307.915 204.400 C 307.602 235.156,308.013 252.221,309.121 254.471 C 312.940 262.221,321.712 266.828,327.081 263.900 C 332.803 260.780,335.313 257.983,337.069 252.771 C 338.052 249.852,338.219 148.665,337.247 144.800 C 335.371 137.343,330.770 132.953,324.344 132.490 C 318.719 132.085,315.488 133.781,307.899 141.124 C 305.204 143.731,301.650 146.857,300.000 148.072 C 296.337 150.768,289.451 157.134,287.935 159.226 C 287.324 160.070,285.833 161.394,284.623 162.168 C 283.412 162.943,282.192 163.966,281.911 164.443 C 281.630 164.919,280.389 165.959,279.154 166.754 C 277.181 168.024,271.571 172.879,263.816 180.027 C 262.487 181.251,260.860 182.662,260.200 183.162 C 259.540 183.662,256.930 185.953,254.400 188.253 C 251.870 190.553,248.569 193.552,247.065 194.917 C 245.561 196.283,243.368 198.365,242.192 199.545 C 241.015 200.725,239.249 202.255,238.267 202.945 C 237.285 203.635,234.914 205.550,232.999 207.200 C 231.084 208.850,228.557 211.010,227.382 212.000 C 226.207 212.990,222.899 215.892,220.031 218.449 C 211.492 226.061,210.727 225.940,199.736 215.245 C 196.031 211.640,192.100 208.013,191.000 207.186 C 189.900 206.358,185.578 202.287,181.396 198.138 C 177.214 193.989,172.084 189.118,169.996 187.314 C 167.908 185.509,164.232 182.026,161.826 179.574 C 159.420 177.123,156.000 173.893,154.226 172.399 C 152.452 170.904,147.677 166.399,143.617 162.389 C 139.556 158.378,134.786 153.833,133.017 152.288 C 131.247 150.743,126.740 146.549,123.000 142.969 C 119.260 139.389,113.519 133.987,110.242 130.965 C 106.965 127.942,103.184 124.374,101.839 123.035 C 94.543 115.768,90.105 112.119,86.993 110.823 C 85.303 110.119,82.995 108.974,81.864 108.278 C 79.118 106.588,72.959 106.231,70.041 107.593 M81.099 110.340 C 82.473 111.039,84.543 111.964,85.699 112.397 C 88.356 113.392,93.640 117.786,102.583 126.438 C 109.273 132.910,110.279 133.857,116.600 139.642 C 118.360 141.252,121.488 144.244,123.551 146.290 C 125.614 148.336,129.283 151.763,131.704 153.905 C 134.125 156.047,139.082 160.741,142.719 164.335 C 146.357 167.930,150.788 172.094,152.566 173.590 C 154.345 175.085,157.870 178.405,160.400 180.967 C 162.930 183.529,166.980 187.369,169.400 189.500 C 171.820 191.631,177.130 196.631,181.200 200.610 C 185.270 204.589,189.672 208.734,190.982 209.822 C 192.292 210.910,195.892 214.293,198.982 217.341 C 210.675 228.874,211.691 228.951,222.400 219.120 C 225.370 216.393,228.621 213.541,229.625 212.781 C 232.135 210.881,239.515 204.388,243.015 201.000 C 244.605 199.460,247.323 196.989,249.053 195.508 C 250.784 194.027,254.825 190.517,258.032 187.708 C 267.739 179.207,275.193 172.721,277.924 170.400 C 279.348 169.190,281.635 167.075,283.007 165.700 C 284.379 164.325,285.690 163.200,285.920 163.200 C 286.150 163.200,288.194 161.389,290.463 159.177 C 292.733 156.964,296.746 153.409,299.383 151.277 C 302.019 149.144,305.532 146.132,307.188 144.581 C 315.949 136.382,318.227 135.002,323.000 135.002 C 329.819 135.002,334.283 139.562,335.187 147.451 C 335.629 151.308,335.655 184.207,335.249 226.600 L 335.000 252.600 333.939 254.864 C 328.986 265.427,315.723 264.253,311.107 252.842 L 310.200 250.600 310.000 216.942 C 309.744 173.807,311.284 176.450,295.121 191.404 C 291.315 194.927,287.431 198.307,286.491 198.916 C 285.551 199.525,284.139 200.918,283.353 202.012 C 282.568 203.105,281.769 204.000,281.579 204.000 C 281.389 204.000,280.281 204.958,279.117 206.128 C 277.161 208.094,275.894 209.267,268.287 216.146 C 266.795 217.496,263.915 220.204,261.887 222.164 C 258.306 225.626,252.604 230.683,248.039 234.445 C 246.807 235.460,243.910 238.168,241.600 240.462 C 237.246 244.787,234.624 247.174,229.365 251.600 C 227.667 253.030,225.140 255.305,223.750 256.655 C 214.255 265.882,207.810 265.369,196.200 254.461 C 194.000 252.394,191.570 250.235,190.800 249.664 C 189.031 248.352,181.153 241.142,177.180 237.200 C 175.518 235.550,172.655 232.940,170.819 231.400 C 167.144 228.318,156.376 218.204,155.901 217.388 C 155.737 217.106,154.387 215.924,152.901 214.762 C 148.942 211.666,145.249 208.401,139.592 203.000 C 136.827 200.360,133.054 196.940,131.207 195.400 C 125.601 190.725,117.535 183.010,116.077 180.928 C 115.587 180.229,114.514 179.248,113.693 178.749 C 112.208 177.846,110.907 176.751,103.550 170.219 C 96.814 164.238,97.441 160.465,97.185 208.561 C 96.937 255.058,97.305 250.954,92.946 255.820 C 89.749 259.389,84.223 262.515,80.231 263.013 C 73.002 263.917,62.708 256.817,61.211 249.896 C 60.631 247.214,60.604 121.679,61.183 119.660 C 63.566 111.349,73.729 106.594,81.099 110.340 " stroke="none" fill="#649ccc" fill-rule="evenodd"></path><path id="path4" d="M26.670 52.043 C 16.044 52.721,11.044 54.789,8.981 59.357 C 7.167 63.374,4.308 79.290,3.799 88.200 C 3.200 98.689,1.841 106.579,0.547 107.076 C 0.109 107.244,0.000 108.919,0.000 115.505 C 0.000 123.641,0.008 123.717,0.783 123.015 C 2.750 121.235,3.484 116.364,5.604 91.000 C 6.390 81.603,10.076 61.364,11.359 59.407 C 12.411 57.800,13.590 57.257,19.247 55.772 C 22.191 55.000,25.590 54.105,26.800 53.785 C 31.352 52.581,42.474 52.304,77.381 52.523 C 111.787 52.740,117.419 52.957,125.200 54.368 C 127.510 54.787,130.030 55.234,130.800 55.361 C 132.566 55.653,152.880 57.064,159.800 57.375 C 167.783 57.735,181.276 58.927,196.200 60.592 C 199.060 60.911,203.920 61.359,207.000 61.588 C 220.886 62.621,231.442 63.697,242.000 65.157 C 248.270 66.024,254.930 66.851,256.800 66.996 C 262.651 67.448,270.245 68.378,272.875 68.966 C 274.264 69.276,277.380 69.987,279.800 70.546 C 282.220 71.106,288.160 72.013,293.000 72.564 C 298.527 73.192,303.957 74.081,307.600 74.954 C 310.790 75.718,315.200 76.543,317.400 76.787 C 324.939 77.624,327.808 78.056,333.408 79.198 C 336.493 79.827,343.873 81.157,349.808 82.154 C 355.744 83.151,362.368 84.511,364.528 85.177 C 366.689 85.842,369.929 86.668,371.728 87.011 C 373.528 87.354,375.810 87.817,376.800 88.040 C 379.102 88.558,388.712 93.016,389.914 94.123 C 392.462 96.472,394.067 109.202,394.791 132.800 C 395.856 167.566,395.921 168.538,398.209 183.973 C 399.772 194.523,399.974 193.842,399.988 177.980 C 399.995 170.159,399.847 163.589,399.660 163.380 C 399.267 162.940,398.235 155.862,397.593 149.200 C 397.349 146.670,396.989 138.480,396.792 131.000 C 395.905 97.291,395.231 94.192,388.000 90.593 C 386.350 89.772,384.535 88.771,383.967 88.370 C 382.827 87.565,379.952 86.751,374.852 85.788 C 373.010 85.440,370.040 84.552,368.252 83.814 C 366.157 82.950,363.435 82.236,360.600 81.807 C 358.180 81.441,353.590 80.532,350.400 79.787 C 343.753 78.236,329.472 75.850,323.000 75.210 C 317.447 74.661,316.640 74.526,312.000 73.370 C 307.073 72.143,304.271 71.733,297.200 71.204 C 290.100 70.673,288.195 70.349,282.147 68.644 C 277.228 67.258,273.169 66.600,267.000 66.190 C 262.173 65.868,253.133 64.559,249.055 63.591 C 247.235 63.158,239.997 62.267,232.972 61.610 C 225.948 60.953,217.140 60.064,213.400 59.635 C 209.660 59.206,205.070 58.741,203.200 58.601 C 201.330 58.462,197.550 58.093,194.800 57.783 C 187.789 56.991,174.478 56.062,163.510 55.600 C 152.843 55.150,151.489 55.031,145.200 53.988 C 132.583 51.897,50.167 50.544,26.670 52.043 M70.200 111.111 C 64.892 113.716,62.300 117.200,61.574 122.701 C 61.306 124.732,61.205 147.037,61.282 187.409 L 61.400 249.017 62.683 251.609 C 68.399 263.151,82.863 265.459,91.740 256.244 C 96.653 251.146,96.169 256.006,96.400 209.400 C 96.618 165.317,96.580 166.000,98.805 166.000 C 99.622 166.000,105.071 170.412,110.200 175.226 C 111.520 176.465,113.269 177.923,114.086 178.467 C 114.903 179.010,116.073 180.078,116.686 180.839 C 118.097 182.591,125.607 189.674,129.800 193.207 C 131.560 194.689,135.981 198.669,139.624 202.051 C 147.298 209.174,148.353 210.126,152.400 213.575 C 154.050 214.981,155.451 216.256,155.514 216.408 C 155.718 216.903,168.155 228.316,169.800 229.517 C 170.680 230.160,173.207 232.467,175.416 234.643 C 180.823 239.971,188.591 247.130,190.800 248.820 C 191.790 249.577,194.602 252.088,197.049 254.399 C 207.591 264.354,214.691 264.902,223.239 256.421 C 224.470 255.200,226.964 252.940,228.780 251.400 C 232.968 247.849,237.097 244.080,242.409 238.960 C 244.714 236.738,247.320 234.308,248.200 233.560 C 253.115 229.382,257.062 225.872,260.800 222.355 C 263.110 220.181,268.420 215.308,272.600 211.524 C 276.780 207.741,281.409 203.392,282.887 201.860 C 284.364 200.327,286.030 198.774,286.589 198.407 C 287.612 197.736,291.544 194.172,299.872 186.366 C 306.373 180.272,308.272 179.540,309.893 182.506 C 310.549 183.706,310.615 186.256,310.800 217.600 L 311.000 251.400 312.508 254.486 C 314.124 257.792,315.034 258.675,319.000 260.791 C 323.765 263.333,330.713 260.516,333.456 254.929 L 334.600 252.600 334.719 200.200 C 334.855 140.124,335.001 142.637,331.173 138.895 C 325.360 133.212,318.974 134.551,309.075 143.530 C 306.394 145.961,302.130 149.697,299.600 151.831 C 294.297 156.305,288.884 161.103,280.302 168.940 C 276.965 171.986,273.237 175.314,272.017 176.334 C 268.419 179.344,263.972 183.217,261.391 185.587 C 260.066 186.804,257.297 189.240,255.239 191.000 C 253.181 192.760,250.485 195.104,249.249 196.208 C 248.012 197.312,246.350 198.617,245.556 199.106 C 244.761 199.596,243.608 200.723,242.993 201.610 C 242.378 202.498,241.048 203.831,240.037 204.573 C 239.027 205.315,237.732 206.435,237.161 207.061 C 236.007 208.325,233.164 210.784,228.732 214.350 C 227.120 215.648,223.730 218.620,221.200 220.954 C 215.650 226.076,213.709 227.114,210.153 226.860 C 208.595 226.749,204.067 223.301,199.475 218.729 C 196.973 216.238,192.693 212.224,189.963 209.809 C 187.233 207.394,182.840 203.188,180.200 200.464 C 177.560 197.739,174.050 194.392,172.400 193.025 C 170.750 191.658,166.154 187.403,162.186 183.570 C 158.219 179.736,153.719 175.526,152.186 174.214 C 150.654 172.902,145.890 168.394,141.600 164.195 C 137.310 159.997,132.090 155.095,130.000 153.303 C 127.910 151.510,123.860 147.671,121.000 144.772 C 118.140 141.872,114.861 138.801,113.713 137.947 C 112.566 137.093,108.657 133.471,105.027 129.897 C 90.922 116.010,88.999 114.503,81.400 111.389 C 76.070 109.204,74.179 109.157,70.200 111.111 M80.967 113.210 C 85.679 114.719,95.960 122.489,100.539 128.000 C 102.613 130.497,109.676 137.206,112.443 139.307 C 113.456 140.077,116.966 143.351,120.243 146.582 C 123.519 149.813,127.977 154.019,130.150 155.928 C 132.322 157.838,137.195 162.460,140.979 166.200 C 144.763 169.940,149.195 174.150,150.829 175.555 C 152.463 176.960,156.807 181.035,160.483 184.609 C 164.158 188.184,168.208 191.976,169.483 193.036 C 170.757 194.096,175.310 198.398,179.600 202.596 C 183.890 206.794,188.840 211.475,190.600 212.997 C 192.360 214.520,195.960 217.882,198.600 220.469 C 210.335 231.969,212.109 232.055,223.330 221.671 C 226.735 218.519,230.574 215.165,231.860 214.216 C 235.104 211.824,242.894 204.543,244.331 202.559 C 244.985 201.657,246.393 200.359,247.460 199.676 C 250.169 197.942,257.019 192.281,261.976 187.678 C 269.326 180.854,270.162 180.111,272.261 178.538 C 275.255 176.293,283.637 168.521,284.770 166.938 C 285.304 166.192,286.564 165.073,287.570 164.452 C 288.577 163.830,289.940 162.785,290.600 162.129 C 291.260 161.473,292.880 160.097,294.200 159.071 C 295.520 158.045,298.400 155.585,300.600 153.604 C 302.800 151.624,305.540 149.281,306.688 148.398 C 307.836 147.515,308.952 146.463,309.167 146.061 C 309.663 145.134,316.141 139.953,317.997 138.998 C 322.906 136.472,328.912 138.411,331.526 143.364 L 332.600 145.400 332.600 198.600 L 332.600 251.800 331.400 253.986 C 327.227 261.586,317.286 261.229,314.307 253.372 L 313.408 251.000 313.204 215.982 C 312.975 176.690,313.195 179.310,310.040 178.365 C 307.548 177.618,305.878 178.165,303.457 180.518 C 302.280 181.663,299.474 184.220,297.223 186.200 C 294.971 188.180,291.750 191.247,290.064 193.016 C 288.379 194.784,286.180 196.794,285.179 197.481 C 284.177 198.168,282.876 199.425,282.288 200.274 C 281.699 201.122,280.636 202.161,279.923 202.582 C 278.580 203.375,270.111 210.973,266.580 214.552 C 265.469 215.678,262.692 218.220,260.410 220.200 C 258.128 222.180,254.293 225.600,251.889 227.800 C 249.484 230.000,246.860 232.300,246.058 232.910 C 245.256 233.521,243.607 235.051,242.393 236.310 C 239.636 239.169,231.284 246.954,229.716 248.126 C 228.540 249.004,226.479 250.909,221.795 255.447 C 214.678 262.341,207.510 261.675,198.706 253.300 C 196.220 250.935,192.839 247.905,191.193 246.567 C 189.547 245.229,184.347 240.549,179.638 236.167 C 174.929 231.785,170.523 227.791,169.848 227.291 C 168.575 226.348,161.836 220.121,157.196 215.600 C 155.729 214.170,152.924 211.577,150.964 209.837 C 149.004 208.098,144.700 204.204,141.400 201.185 C 138.100 198.165,132.160 192.796,128.200 189.254 C 124.240 185.712,119.650 181.540,118.000 179.983 C 116.350 178.426,112.660 175.048,109.801 172.476 C 106.942 169.904,103.581 166.765,102.333 165.500 C 99.972 163.107,98.581 162.626,97.165 163.713 C 95.356 165.102,95.411 163.863,95.200 207.400 C 94.967 255.499,95.676 249.623,89.258 256.618 C 86.696 259.411,78.959 260.643,73.895 259.064 C 68.623 257.420,67.284 256.211,64.320 250.421 L 63.000 247.842 63.000 184.984 L 63.000 122.126 64.533 119.107 C 67.924 112.426,72.922 110.633,80.967 113.210 M399.507 218.250 C 399.213 218.703,398.881 220.664,397.792 228.400 C 397.467 230.710,396.942 234.310,396.625 236.400 C 396.063 240.114,395.540 251.208,394.789 275.400 C 393.819 306.659,392.248 312.008,383.220 314.794 C 381.049 315.464,378.221 316.478,376.936 317.047 C 375.651 317.616,370.460 319.039,365.400 320.209 C 360.340 321.380,354.473 322.789,352.363 323.341 C 350.252 323.893,347.012 324.542,345.163 324.783 C 340.560 325.383,338.605 325.796,332.800 327.392 C 330.050 328.148,325.550 329.061,322.800 329.421 C 316.364 330.264,313.058 330.954,308.565 332.392 C 305.977 333.220,302.465 333.854,296.365 334.595 C 291.654 335.167,285.190 336.068,282.000 336.598 C 270.522 338.505,261.776 339.536,244.400 341.033 C 242.970 341.157,239.730 341.512,237.200 341.824 C 225.151 343.309,213.396 344.398,205.200 344.789 C 200.250 345.025,195.750 345.295,195.200 345.388 C 194.650 345.481,192.400 345.666,190.200 345.800 C 182.953 346.240,178.281 346.752,172.000 347.793 C 161.871 349.472,153.971 349.707,107.200 349.725 C 56.139 349.745,53.143 349.624,41.000 347.043 C 39.460 346.715,32.982 345.971,26.603 345.389 C 12.025 344.058,11.470 343.859,10.035 339.454 C 8.400 334.436,6.265 320.821,5.604 311.200 C 3.643 282.658,2.575 275.600,0.217 275.600 C -0.310 275.600,0.000 292.702,0.535 293.146 C 1.827 294.219,3.024 301.212,3.591 311.000 C 4.683 329.866,6.739 340.801,9.769 343.860 C 11.766 345.875,12.973 346.228,19.800 346.799 C 22.660 347.038,26.470 347.579,28.267 348.001 C 37.812 350.246,47.297 350.549,107.600 350.540 C 168.669 350.531,181.744 350.118,194.400 347.799 C 196.270 347.456,201.580 347.000,206.200 346.784 C 214.620 346.392,234.524 344.951,236.400 344.598 C 236.950 344.494,240.820 344.049,245.000 343.608 C 249.180 343.167,254.580 342.545,257.000 342.225 C 259.420 341.906,265.810 341.177,271.200 340.606 C 277.204 339.970,282.937 339.114,286.000 338.396 C 292.213 336.940,294.538 336.556,300.600 335.986 C 307.098 335.374,308.643 335.053,314.069 333.187 C 317.979 331.842,319.733 331.482,324.869 330.972 C 331.261 330.336,334.557 329.718,338.600 328.397 C 339.920 327.966,343.070 327.327,345.600 326.977 C 351.417 326.174,362.268 323.889,365.367 322.817 C 366.668 322.366,369.998 321.442,372.767 320.764 C 375.717 320.041,378.664 319.040,379.888 318.343 C 381.037 317.690,383.688 316.620,385.780 315.966 C 394.717 313.172,395.810 309.366,396.794 277.600 C 397.331 260.250,398.369 248.700,399.597 246.406 C 400.073 245.517,399.984 217.518,399.507 218.250 " stroke="none" fill="#8db4d7" fill-rule="evenodd"></path></g></svg>