<?xml version="1.0" standalone="no"?>
<!DOCTYPE svg PUBLIC "-//W3C//DTD SVG 20010904//EN"
 "http://www.w3.org/TR/2001/REC-SVG-20010904/DTD/svg10.dtd">
<svg version="1.0" xmlns="http://www.w3.org/2000/svg"
 width="200.000000pt" height="200.000000pt" viewBox="0 0 200.000000 200.000000"
 preserveAspectRatio="xMidYMid meet">
<metadata>
Created by potrace 1.15, written by Peter Selinger 2001-2017
</metadata>
<g transform="translate(0.000000,200.000000) scale(0.100000,-0.100000)"
fill="#000000" stroke="none">
<path d="M190 1730 c-8 -5 -39 -12 -68 -16 -29 -3 -54 -9 -56 -13 -9 -15 -35
-203 -40 -294 -3 -53 -10 -106 -16 -117 -13 -25 -14 -545 0 -570 5 -10 14 -85
20 -167 12 -170 25 -253 40 -263 6 -4 58 -10 115 -13 57 -3 113 -11 124 -16
26 -14 425 -15 451 -1 11 6 90 15 177 20 87 5 219 16 293 24 74 8 160 18 190
21 30 3 73 10 95 15 22 5 76 16 120 25 155 32 290 67 302 79 32 30 49 446 33
796 -14 292 -12 285 -63 303 -50 17 -118 33 -207 47 -36 6 -90 15 -120 20 -30
5 -95 16 -145 25 -139 25 -488 60 -735 75 -85 4 -168 13 -183 19 -35 13 -306
14 -327 1z m228 -279 c20 -11 53 -34 72 -52 65 -60 184 -173 285 -269 224
-212 266 -250 281 -250 12 0 114 79 154 120 3 3 48 43 100 89 52 46 128 113
168 150 41 36 89 75 107 86 l34 20 28 -21 28 -21 3 -288 c2 -285 2 -289 -20
-312 -34 -37 -79 -27 -106 24 -8 14 -12 81 -12 187 0 91 -3 166 -6 166 -9 0
-67 -51 -214 -190 -69 -64 -141 -130 -160 -146 -19 -16 -44 -37 -54 -46 -11
-10 -34 -18 -51 -18 -34 0 -67 26 -210 161 -39 36 -133 123 -210 192 l-140
127 -5 -216 -5 -216 -30 -24 c-40 -32 -85 -31 -124 2 l-31 26 0 341 c0 188 4
347 8 353 9 13 54 44 65 44 4 0 24 -9 45 -19z"/>
</g>
</svg>
