<svg viewBox="0 0 200 50" fill="none" xmlns="http://www.w3.org/2000/svg">
<path d="M18.4342 0C24.7197 0 29.6448 1.50006 33.2097 4.50018C36.7746 7.5003 38.557 11.6255 38.557 16.8757C38.557 22.1259 36.7746 26.251 33.2097 29.2512C29.6448 32.2044 24.7197 33.681 18.4342 33.681H5.20661V49.2207H0V0H18.4342ZM18.2935 29.1105C23.1717 29.1105 26.9008 28.0558 29.4806 25.9464C32.0605 23.79 33.3504 20.7665 33.3504 16.8757C33.3504 12.8912 32.0605 9.84414 29.4806 7.73468C26.9008 5.57834 23.1717 4.50018 18.2935 4.50018H5.20661V29.1105H18.2935Z" fill="#89BBFE"/>
<path d="M61.3623 11.9536C66.1937 11.9536 69.8993 13.1724 72.4791 15.61C75.059 18.0007 76.3489 21.5634 76.3489 26.2979V49.2207H71.5644V43.4548C70.4387 45.3768 68.7735 46.8768 66.5689 47.955C64.4112 49.0332 61.8314 49.5722 58.8294 49.5722C54.7016 49.5722 51.4182 48.5878 48.979 46.619C46.5399 44.6502 45.3203 42.0485 45.3203 38.814C45.3203 35.6733 46.4461 33.1419 48.6976 31.22C50.996 29.298 54.6312 28.3371 59.6033 28.3371H71.3534V26.087C71.3534 22.8994 70.4621 20.4852 68.6797 18.8445C66.8973 17.1569 64.294 16.3132 60.8698 16.3132C58.5245 16.3132 56.273 16.7116 54.1153 17.5085C51.9576 18.2585 50.1048 19.3133 48.5569 20.6727L46.3054 16.946C48.1816 15.3522 50.4331 14.1334 53.0599 13.2896C55.6866 12.3989 58.4541 11.9536 61.3623 11.9536ZM59.6033 45.6346C62.4177 45.6346 64.8334 45.0018 66.8504 43.7361C68.8673 42.4235 70.3683 40.5485 71.3534 38.1109V32.0638H59.744C53.4117 32.0638 50.2455 34.267 50.2455 38.6734C50.2455 40.8298 51.0664 42.5407 52.7081 43.8064C54.3498 45.0252 56.6482 45.6346 59.6033 45.6346Z" fill="#89BBFE"/>
<path d="M108.774 11.9536C113.417 11.9536 117.1 13.313 119.82 16.0319C122.588 18.7039 123.971 22.6181 123.971 27.7746V49.2207H118.976V28.2668C118.976 24.4229 118.014 21.4931 116.091 19.4773C114.168 17.4616 111.424 16.4538 107.859 16.4538C103.872 16.4538 100.706 17.6492 98.3604 20.0399C96.062 22.3837 94.9128 25.6417 94.9128 29.8137V49.2207H89.9173V12.2349H94.7017V19.0555C96.062 16.8054 97.9383 15.0709 100.33 13.8521C102.77 12.5864 105.584 11.9536 108.774 11.9536Z" fill="#89BBFE"/>
<path d="M157.023 46.9706C156.085 47.8144 154.912 48.4706 153.505 48.9394C152.145 49.3613 150.714 49.5722 149.213 49.5722C145.742 49.5722 143.069 48.6347 141.192 46.7596C139.316 44.8846 138.378 42.2361 138.378 38.814V16.4538H131.764V12.2349H138.378V4.1486H143.373V12.2349H154.631V16.4538H143.373V38.5328C143.373 40.736 143.913 42.4235 144.992 43.5955C146.118 44.7205 147.712 45.283 149.776 45.283C150.808 45.283 151.793 45.119 152.731 44.7908C153.716 44.4627 154.561 43.9939 155.264 43.3845L157.023 46.9706Z" fill="#89BBFE"/>
<path d="M170.902 19.4773C172.074 16.9929 173.81 15.1178 176.108 13.8521C178.454 12.5864 181.338 11.9536 184.762 11.9536V16.8054L183.566 16.7351C179.673 16.7351 176.624 17.9304 174.42 20.3211C172.215 22.7119 171.113 26.0635 171.113 30.3762V49.2207H166.117V12.2349H170.902V19.4773Z" fill="#89BBFE"/>
<path d="M193.808 12.2349H198.803V49.2207H193.808V12.2349Z" fill="#89BBFE"/>
<ellipse cx="196.335" cy="5.51784" rx="3.66456" ry="3.66225" fill="#E26D5A"/>
</svg>
